
<svg xmlns="http://www.w3.org/2000/svg" version="1.1" xmlns:xlink="http://www.w3.org/1999/xlink" preserveAspectRatio="none" x="0px" y="0px" width="550px" height="400px" viewBox="0 0 550 400">
<defs>
<g id="Layer0_0_MEMBER_0_MEMBER_0_MEMBER_0_MEMBER_0_MEMBER_0_MEMBER_0_FILL">
<path fill="#A8673C" stroke="none" d="
M 209.05 248.95
L 209.1 248.45 187.6 247.45 187.6 252.4 208.85 252.4
Q 208.85 250.6 209.05 248.95
M 268.85 254.65
Q 264.45 256.8 262.25 257.75
L 291.75 257.75 290.85 251.95 274.7 251.25 268.85 254.65 Z"/>
</g>

<g id="Layer0_0_MEMBER_0_MEMBER_0_MEMBER_0_MEMBER_0_MEMBER_0_MEMBER_1_FILL">
<path fill="#DB8C58" stroke="none" d="
M 208.15 269.5
L 231.75 269.5
Q 243.75 261.95 246.1 261.05
L 233.4 261.15
Q 225.4 261.15 224.35 261
L 224.15 261.05
Q 224.1 261.05 224.1 260.9
L 210.3 261.4
Q 208.9 261.4 208.25 261.5 208.5 262.75 208.5 264.5 208.5 267.4 208.15 269.5
M 178.4 267.9
Q 183.4 267.25 186.8 265.3 190.2 263.4 194.9 260.65 191.75 260.9 187.15 260.8
L 177.85 260.9 178.4 267.9
M 210.15 239.6
L 202.6 239.75 187.6 247.45 209.1 248.45
Q 209.5 244.2 210.15 239.6
M 272.35 238.4
Q 272.6 238.7 272.6 239.75
L 272.5 242.25 272.6 242.4
Q 272.75 242.4 272.75 242.5 273.15 242.5 274.85 242.1 276.5 241.65 276.95 241.65 278.15 241.65 278.75 243.15 279.2 244.2 279.2 245.65 279.2 248.2 274.7 251.25
L 290.85 251.95 316.35 238.4 272.35 238.4
M 270 240.15
Q 270.2 239 270.75 238.4
L 263.95 238.5 264.6 244.85
Q 266.85 244.15 267.25 243.95
L 267.5 243.9
Q 269.25 243.3 269.7 242.7
L 270 240.15
M 405.25 231.6
L 429.95 221.9 366.35 221.9 339.35 231.6 405.25 231.6 Z"/>
</g>

<g id="Layer0_0_MEMBER_0_MEMBER_0_MEMBER_0_MEMBER_0_MEMBER_0_MEMBER_2_FILL">
<path fill="#5A85D2" stroke="none" d="
M 217.1 219.65
Q 214.85 221.45 214 223.5 211.8 228.45 210.25 239.15
L 210.15 239.6
Q 209.5 244.2 209.1 248.45
L 209.05 248.95
Q 208.85 250.6 208.85 252.4 208.8 258.35 210.3 261.4
L 215.15 261.25 215.4 248.7 217.1 219.65
M 249.6 212.9
Q 250.65 224.85 251.35 234.15 251.35 234.85 251.65 238.75 252.2 246.85 252.6 250
L 252.85 252.15 254 254.4
Q 256.55 259.15 257.85 259.15
L 258.25 259.15
Q 259.2 259 262.25 257.75 264.45 256.8 268.85 254.65
L 271 253.45
Q 271.9 247.95 267.5 243.9
L 267.25 243.95
Q 266.85 244.15 264.6 244.85
L 263.95 238.5 263.85 238.35
Q 263.05 230.65 261.25 225.45 257.9 215.6 249.6 212.9 Z"/>
</g>

<g id="Layer0_0_MEMBER_0_MEMBER_0_MEMBER_0_MEMBER_0_MEMBER_0_MEMBER_3_FILL">
<path fill="#C64C3E" stroke="none" d="
M 222.5 216.4
Q 219.1 217.95 217.1 219.65
L 215.4 248.7 215.15 261.25 222.6 261 222.5 216.4
M 251.35 234.15
Q 250.65 224.85 249.6 212.9 246.45 211.85 242.65 211.85
L 240.3 211.9 240.35 219.15
Q 240.35 227.25 240.05 239 239.85 244 239.75 249.75
L 239.35 261.15 246.1 261.05
Q 245.9 262.45 245.9 263
L 246.25 269.5 254.55 269.5
Q 254.35 268.15 253.85 263.5
L 252.6 250
Q 252.2 246.85 251.65 238.75 251.35 234.85 251.35 234.15 Z"/>
</g>

<g id="Layer0_0_MEMBER_0_MEMBER_0_MEMBER_0_MEMBER_0_MEMBER_0_MEMBER_4_FILL">
<path fill="#74A0EE" stroke="none" d="
M 231.55 215.7
Q 232.3 216.95 232.65 218.5 233.15 220.5 233.15 222.85 233.15 226.85 232.6 228.5 232.25 229.75 229.75 233.9 226.95 229.15 226.75 228.2 226.55 227.75 226.55 222.85 226.55 218.5 226.65 218.1 226.85 216.85 227.9 215.25 227.5 214.9 227.4 214.35 225.7 214.9 224.1 215.65 223.3 215.9 222.5 216.4
L 222.6 261 224.5 260.9 224.55 260.9 224.5 260.9
Q 224.39375 260.9126953125 224.35 261 225.4 261.15 233.4 261.15
L 239.35 261.15 239.75 249.75
Q 239.85 244 240.05 239 240.35 227.25 240.35 219.15
L 240.3 211.9
Q 236.95 212.05 233.85 212.65
L 233.85 213
Q 233.85 215.7 231.65 215.7
L 231.55 215.7
M 282.7 269.5
Q 281.95 265.85 281.45 264.5 280.25 261.25 276.1 261.25 272.7 261.25 267.75 262.65
L 258.25 265 258.25 259.15 257.85 259.15
Q 256.55 259.15 254 254.4
L 252.85 252.15 253.85 263.5
Q 254.35 268.15 254.55 269.5
L 282.7 269.5 Z"/>
</g>

<g id="Layer0_0_MEMBER_0_MEMBER_0_MEMBER_0_MEMBER_0_MEMBER_0_MEMBER_5_FILL">
<path fill="#000000" stroke="none" d="
M 231.55 215.7
Q 229.05 215.7 228.4 215.5
L 227.9 215.25
Q 226.85 216.85 226.65 218.1 226.55 218.5 226.55 222.85 226.55 227.75 226.75 228.2 226.95 229.15 229.75 233.9 232.25 229.75 232.6 228.5 233.15 226.85 233.15 222.85 233.15 220.5 232.65 218.5 232.3 216.95 231.55 215.7
M 155.9 164.9
Q 154.05 163.65 150.1 161.65
L 149.75 161.45
Q 144.6 160.7 140.85 161.15 137.05 161.75 134.85 162.65 132.8 163.55 129.5 167.2 126.25 170.85 126.3 175.4 126.3 179.05 127.8 186.4
L 129.15 192.95
Q 130.1 197.75 130.55 203.7 135.35 205.7 140.25 206.4
L 146.15 206.9 148.1 206.9
Q 147.65 204.95 147.65 204.45 147.65 201.25 151.3 198.65 156.65 194.8 158.1 193.1 160.25 190.25 161.75 184.15 162.85 179.5 163.1 175.9 162.55 173.6 161.55 171 160.15 167.85 155.9 164.9
M 37.25 147
Q 37.55625 146.990625 37.75 146.7 36.8 146.3 31.25 147.4 23.7 149.1 15.8 153 9.8 155.95 4.8 162.95 1.35 167.85 0.25 173.1
L 0.25 204.5
Q 4.3 210 10.85 214.4
L 13 215.65
Q 20.6 220.15 24.5 220.15 30.35 220.15 40.9 213 50.05 206.85 52 203.85 50.95 203.45 49.2 200.25 47.2 196.85 47.2 194.45 47.2 190.2 49.95 187.95 51.95 186.4 54.25 186.4 57.9 186.4 58.5 188.85 59 190.45 59.05 193.9 60.25 191.7 62.55 188.9
L 67.05 183.4
Q 69.3 180.2 70.55 177.4
L 70.5 174.5
Q 69.9 166.1 67.4 160.9 60.95 147.3 38 147
L 37.25 147
M 235.85 177.5
Q 227.25 177.5 222.6 181.4 217.85 185.3 217.85 192.7 217.85 197.35 220.9 202.9 223.6 207.45 226.3 208.7
L 226.3 209.15
Q 226.3 210.4 227.3 211.35
L 227.35 211.4 227.9 211.85
Q 228.95 212.45 230.6 212.45 232.5 212.45 233.15 211.4
L 233 211.35 233.35 211.25
Q 235.25 210.9 237.05 210.1 238.75 209.25 241.15 207.6
L 242.65 206.4
Q 245.55 204.25 246.6 202.45 248.1 199.75 248.1 194.9 248.1 188.8 245.75 183.95 242.4 177.5 235.85 177.5
M 459.6 209.7
Q 453.35 209.55 447.85 208.9
L 453.7 269.5 465.45 269.5
Q 464.25 243.65 465.35 225.45 466.3 223.5 467.45 225.45
L 476.6 269.5 486 269.5 478.85 211.75 478.7 208.9
Q 469.2 209.95 459.85 209.7
L 459.6 209.7
M 465 144.5
L 465.1 144.4
Q 464.25 143.9 463.75 143.9 463.45 143.85 462.7 143.9
L 461.6 143.95
Q 461.2 144.1 461.25 144.5 461.8 144.85 462.75 144.85 463.9 144.65 464.5 144.65 464.95 144.65 465 144.5
M 459.75 144.65
Q 459.95 144.5 459.95 144.35
L 459.85 144.15 458.45 144.1
Q 457.55 144 456.6 144 456.3 144 456 144.4 456.1 144.5 457.45 144.65 458.75 144.8 459.25 144.75
L 459.75 144.65
M 463 138.15
Q 463.2 138.15 463.5 137.85 463.6 137.7 463.6 137.4 463.6 137.05 463.45 136.9 463.05 136.7 462.95 136.7 462.85 136.7 462.35 137 462.2 137.15 462.25 137.45 462.25 137.85 462.5 137.9 462.75 138.15 463 138.15
M 455.25 136.95
L 454.75 137.2
Q 454.5 137.55 454.5 137.75 454.5 138.1 454.85 138.25 455 138.45 455.35 138.4 455.65 138.4 455.85 138.15 456 137.95 456 137.65 456 137.4 455.75 137.15 455.55 136.95 455.25 136.95
M 462 131.25
Q 463.95 131.1 465.25 130.7 466.55 130.2 467.95 128.9
L 467.85 129.4 468 130.45
Q 468.15 132.85 468.85 134.15 469.4 134.95 470.35 136
L 470.45 133.65 470.2 130.95
Q 469.85 129.45 469.2 128.25
L 469.1 128.15 469.25 127.45
Q 469.2 126.1 465.85 125.2 462.9 124.45 460 124.7 454.1 125.1 452.35 126.5
L 451.7 127.45 451.6 128.1
Q 451.15 129.35 450.85 130.75
L 451 130.75 453.1 131.1 456.35 130.35
Q 458.1 130.95 459.25 131.15 460.55 131.4 462 131.25 Z"/>
</g>

<g id="Layer0_0_MEMBER_0_MEMBER_0_MEMBER_0_MEMBER_0_MEMBER_0_MEMBER_6_FILL">
<path fill="#E04E4E" stroke="none" d="
M 227.4 214.35
Q 227.5 214.9 227.9 215.25
L 228.4 215.5
Q 229.05 215.7 231.55 215.7
L 231.65 215.7
Q 233.85 215.7 233.85 213
L 233.85 212.65 233.5 211.65
Q 233.4 211.5 233.15 211.4 232.5 212.45 230.6 212.45 228.95 212.45 227.9 211.85 227.35 213.1 227.35 214.1
L 227.4 214.35 Z"/>
</g>

<g id="Layer0_0_MEMBER_0_MEMBER_0_MEMBER_0_MEMBER_0_MEMBER_0_MEMBER_7_FILL">
<path fill="#BB6E3A" stroke="none" d="
M 241.1 211.9
L 241.15 207.6
Q 238.75 209.25 237.05 210.1 235.25 210.9 233.35 211.25
L 233.15 211.4
Q 233.4 211.5 233.5 211.65
L 233.85 212.65
Q 236.95 212.05 240.3 211.9
L 241.1 211.9
M 270.75 238.4
Q 270.2 239 270 240.15
L 269.7 242.7
Q 269.25 243.3 267.5 243.9 271.9 247.95 271 253.45
L 274.7 251.25
Q 279.2 248.2 279.2 245.65 279.2 244.2 278.75 243.15 278.15 241.65 276.95 241.65 276.5 241.65 274.85 242.1 273.15 242.5 272.75 242.5 272.75 242.4 272.6 242.4
L 272.5 242.25 272.6 239.75
Q 272.6 238.7 272.35 238.4 272 237.9 271.6 237.9 271.1 237.9 270.75 238.4
M 157.5 255.2
Q 158.3 262.05 159.35 269.5
L 208.15 269.5
Q 208.5 267.4 208.5 264.5 208.5 262.75 208.25 261.5 207.7 259.5 206.75 259.15 204.9 258.3 203.85 258.3 202.75 258.3 199.85 260.05 199.95 259.55 199.5 257.5 198.7 254.35 197.15 254.35 194.6 254.35 194.6 257.5 194.6 258.4 194.9 260.65 190.2 263.4 186.8 265.3 183.4 267.25 178.4 267.9
L 177.05 253.15 177.05 253 169.3 255.6
Q 167.65 255.85 163.35 255.7 158.9 255.55 157.5 255.2 Z"/>
</g>

<g id="Layer0_0_MEMBER_0_MEMBER_0_MEMBER_0_MEMBER_0_MEMBER_0_MEMBER_8_FILL">
<path fill="#955A32" stroke="none" d="
M 291.75 269.5
L 291.75 257.75 289.1 257.75 289.1 269.5 291.75 269.5
M 316.35 245.5
L 316.35 238.4 290.85 251.95 291.75 257.75 316.35 245.5 Z"/>
</g>

<g id="Layer0_0_MEMBER_0_MEMBER_0_MEMBER_0_MEMBER_0_MEMBER_0_MEMBER_9_FILL">
<path fill="#B67447" stroke="none" d="
M 311.85 269.5
L 311.85 247.75 307 250.15 307 269.5 311.85 269.5
M 291.75 269.5
L 295.35 269.5 295.35 255.9 291.75 257.75 291.75 269.5 Z"/>
</g>

<g id="Layer0_0_MEMBER_0_MEMBER_0_MEMBER_0_MEMBER_0_MEMBER_0_MEMBER_10_FILL">
<path fill="#ABECD8" stroke="none" d="
M 262 337.1
Q 258.95 338.35 258 338.5
L 258 344.35 267.5 342
Q 272.45 340.6 275.85 340.6 280 340.6 281.2 343.85 281.7 345.2 282.45 348.85
L 288.85 348.85 288.85 337.1 262 337.1
M 304.35 330.75
L 295.1 335.25 295.1 348.85 304.35 348.85 304.35 330.75
M 10.6 293.75
Q 4.05 289.35 0 283.85
L 0 314.05 0.05 314
Q 7.45 312.05 7.65 313.1 8.2 309.45 8.9 307.35 9.7 305.5 11.3 304.25
L 10.6 293.75
M 467.2 304.8
Q 466.05 302.85 465.1 304.8 464 323 465.2 348.85
L 476.35 348.85 467.2 304.8
M 469 206.8
L 468.85 207.5 468.95 207.6
Q 469.6 208.8 469.95 210.3
L 470.2 213 469.75 219 471.1 218.2
Q 471.55 217.95 472.2 217.95 472.8 217.9 473 218.2 473.1 218.3 473.2 219 473.2 220.4 472.45 221.6 471.65 222.8 470.5 222.8 470 222.9 469.6 222.5
L 469.5 222.5
Q 469.2 226.2 469.25 227.25 469.25 229.95 466.35 231.35 465.95 231.65 465.5 231.8
L 465.5 232.2
Q 465.65 233.9 466.75 235.2 467.55 236 468.75 236.75
L 469.35 237
Q 470.75 237.65 473.25 238.25
L 477.75 239.5
Q 480.75 240.35 484 246.8 485.7 250 487.95 255
L 490.5 260.5
Q 491.85 257.2 492.5 254.5 492.65 253.85 493.5 251.1 493.9 249.4 495.1 245.1
L 495.95 242.25 495.5 241.7
Q 494.25 240.25 494.25 239.5 494.2 239 494.35 238.6 494.6 238.1 495.1 238 495.3 238 495.85 238.55
L 496.85 239.35
Q 497.35 236.6 497.5 236.2 498.3 234.6 500.5 234.5 502.9 234.3 504.25 236.25 505.35 237.8 505.5 240.75 505.65 241.95 504.25 248.6
L 504.2 249 502.35 256.75 502.35 257
Q 501.55 259.15 500.5 262.5
L 498.45 268.2
Q 495.9 273.85 493.5 274.45 490.9 274.85 489.75 274.25 488.25 273.35 488 273.1 482.95 265.8 479.85 260.75
L 479 259.05 478.5 259.1
Q 478.1 259.5 477.95 259.5 477.7 259.5 477.6 259.35 477.25 265.35 477.45 274.3 477.45 275.7 478.45 288.25
L 478.6 291.1 485.75 348.85 538.2 348.85 538.2 85.2 0 85.2 0 252.45
Q 1.1 247.2 4.55 242.3 9.55 235.3 15.55 232.35 23.45 228.45 31 226.75 36.55 225.65 37.5 226.05
L 37.55 226
Q 37.75 225.95 37.75 226.35 60.7 226.65 67.15 240.25 69.65 245.45 70.25 253.85
L 70.4 268.7
Q 70.4 276.1 69.3 284.25 67.65 295.75 64.4 297.85 61.55 299.75 57.25 301.2 52.15 302.6 50.15 303.45 45.35 305.25 43.55 308.85 45.55 309.95 46 313.2 83.6 317.5 93.05 348.85
L 98 348.85 97.9 347.65
Q 97.6 338.8 98.05 332.95
L 98.15 331.75
Q 100 313.55 110.15 302.05 112.25 300.35 113 299.75 115.45 298.9 119.4 298.1 121.85 297.75 126.8 297.6
L 128.5 292.8 130.3 292.75 130.3 283.05
Q 129.85 277.1 128.9 272.3 127.15 271.9 125.05 270.25 122.4 268.05 122.4 265.7 122.4 263.75 123.8 263.75 125 263.75 125.8 264.35
L 127.55 265.75
Q 126.05 258.4 126.05 254.75 126 250.2 129.25 246.55 132.55 242.9 134.6 242 136.8 241.1 140.6 240.5 144.35 240.05 149.5 240.8
L 149.85 241
Q 153.8 243 155.65 244.25 159.9 247.2 161.3 250.35 162.3 252.95 162.85 255.25
L 164.55 266.2
Q 164.8 265.8 165.9 265.1 167.25 264.35 167.9 264.35 169 264.35 169.9 266.2 170.8 267.7 170.8 268.55 170.8 270.95 168.9 274 166.65 277.7 164.1 275.6 164.55 280.9 162.15 283.45 160.7 284.95 156.55 286.35 152.1 287.8 150.6 289.1 149.05 290.6 148.35 292.85
L 151.1 293.55
Q 151.8 297.1 152.3 298.95
L 159.15 299.5 160.55 299.5
Q 163.9 299.65 168.1 303.1 172.35 306.75 173.3 310.7 175.45 319.7 176.8 332.35
L 176.8 332.5 177.6 340.25 186.9 340.15
Q 191.5 340.25 194.65 340 194.35 337.75 194.35 336.85 194.35 335.9 194.6 335.25 195.1 333.7 196.9 333.7 198.45 333.7 199.25 336.85 199.7 338.9 199.6 339.4 202.5 337.65 203.6 337.65 204.65 337.65 206.5 338.5 207.45 338.85 208 340.85 208.65 340.75 210.05 340.75 208.55 337.7 208.6 331.75
L 187.35 331.75 187.35 326.8 202.35 319.1 209.9 318.95 210 318.5
Q 211.55 307.8 213.75 302.85 214.6 300.8 216.85 299 218.85 297.3 222.25 295.75 223.05 295.25 223.85 295 225.45 294.25 227.15 293.7
L 227.1 293.45
Q 227.1 292.45 227.65 291.2
L 227.1 290.75 227.05 290.7
Q 226.05 289.75 226.05 288.5
L 226.05 288.05
Q 223.35 286.8 220.65 282.25 217.6 276.7 217.6 272.05 217.6 264.65 222.35 260.75 227 256.85 235.6 256.85 242.15 256.85 245.5 263.3 247.85 268.15 247.85 274.25 247.85 279.1 246.35 281.8 245.3 283.6 242.4 285.75
L 240.9 286.95 240.85 291.25 242.4 291.2
Q 246.2 291.2 249.35 292.25 257.65 294.95 261 304.8 262.8 310 263.6 317.7
L 263.7 317.85 270.5 317.75
Q 270.85 317.25 271.35 317.25 271.75 317.25 272.1 317.75
L 316.1 317.75 316.1 324.85 311.6 327.1 311.6 348.85 339.1 348.85 339.1 310.95 366.1 301.25 429.7 301.25 429.7 348.85 453.45 348.85 446.85 279.8
Q 447 278.25 447 275.1 447 271.6 447.1 271
L 447 270.75 447.1 252.95 432.85 268.85
Q 425.65 264.1 418.35 257.75
L 412.6 252.45
Q 409.1 248.95 405.25 244.7 404.2 239.25 408.6 235.05
L 416.25 241.75 418.6 237.95
Q 420.95 236.85 420.85 239.2
L 419.25 244.35 432.1 255
Q 441.75 240.2 447.6 238.7
L 449.35 238.6
Q 451.95 238.45 453.6 237.7
L 454.75 236.95
Q 455.05 236.7 455.35 236.25 456.45 234.95 456.75 232.5 454.75 232 453.1 231.2 449.9 229.45 449.6 223 448.45 223 447.85 222.25 447.3 221.6 447.2 220.45 447.15 219.55 447.25 219.1 447.45 218.5 448.25 218.35 449.05 218.35 449.5 218.75 449.7 214.45 450.6 210.1 450.9 208.7 451.35 207.45
L 451.45 206.8 452.1 205.85
Q 453.85 204.45 459.75 204.05 462.65 203.8 465.6 204.55 468.95 205.45 469 206.8
M 411.85 110.9
L 411.85 221.3 240.65 221.3 240.65 111.25 411.85 110.9 Z"/>
</g>

<g id="Layer0_0_MEMBER_0_MEMBER_0_MEMBER_0_MEMBER_0_MEMBER_0_MEMBER_11_FILL">
<path fill="#8E5630" stroke="none" d="
M 307 269.5
L 307 250.15 304.6 251.4 304.6 269.5 307 269.5
M 245.9 263
Q 245.9 262.45 246.1 261.05 243.75 261.95 231.75 269.5
L 246.25 269.5 245.9 263 Z"/>
</g>

<g id="Layer0_0_MEMBER_0_MEMBER_0_MEMBER_0_MEMBER_0_MEMBER_0_MEMBER_12_FILL">
<path fill="#A1277D" stroke="none" d="
M 7.9 234
L 7.9 233.75
Q 7.7 232.7 0.3 234.65
L 0.25 234.7 0.25 269.5 93.3 269.5
Q 83.85 238.15 46.25 233.85 37.25 232.9 27.75 232.9 18.25 232.9 12.05 233.45
L 7.9 234 Z"/>
</g>

<g id="Layer0_0_MEMBER_0_MEMBER_0_MEMBER_0_MEMBER_0_MEMBER_0_MEMBER_13_FILL">
<path fill="#871866" stroke="none" d="
M 46.25 233.85
Q 45.8 230.6 43.8 229.5 41.7 228.85 38.4 228.1 32.85 226.85 21 224.9
L 11.55 224.9
Q 9.95 226.15 9.15 228 8.45 230.1 7.9 233.75
L 7.9 234
Q 11.9 232.25 12.05 233.45 18.25 232.9 27.75 232.9 37.25 232.9 46.25 233.85 Z"/>
</g>

<g id="Layer0_0_MEMBER_0_MEMBER_0_MEMBER_0_MEMBER_0_MEMBER_0_MEMBER_14_FILL">
<path fill="#E0874A" stroke="none" d="
M 108.3 269.5
L 108.15 266
Q 108.05 262.85 108.05 255.2
L 107.4 255.2
Q 101.75 254.5 98.3 253.6 97.85 259.45 98.15 268.3
L 98.25 269.5 108.3 269.5
M 62.55 188.9
Q 60.25 191.7 59.05 193.9 59 190.45 58.5 188.85 57.9 186.4 54.25 186.4 51.95 186.4 49.95 187.95 47.2 190.2 47.2 194.45 47.2 196.85 49.2 200.25 50.95 203.45 52 203.85 50.05 206.85 40.9 213 30.35 220.15 24.5 220.15 20.6 220.15 13 215.65
L 10.85 214.4 11.55 224.9 21 224.9
Q 32.85 226.85 38.4 228.1 41.7 228.85 43.8 229.5 45.6 225.9 50.4 224.1 52.4 223.25 57.5 221.85 61.8 220.4 64.65 218.5 67.9 216.4 69.55 204.9 70.65 196.75 70.65 189.35
L 70.55 177.4
Q 69.3 180.2 67.05 183.4
L 62.55 188.9 Z"/>
</g>

<g id="Layer0_0_MEMBER_0_MEMBER_0_MEMBER_0_MEMBER_0_MEMBER_0_MEMBER_15_FILL">
<path fill="#92C230" stroke="none" d="
M 109.65 231.15
Q 110.55 225.25 110.4 222.7 100.25 234.2 98.4 252.4
L 98.3 253.6
Q 101.75 254.5 107.4 255.2
L 108.05 255.2 108 248.35
Q 108 241.1 109.65 231.15
M 148.6 213.5
L 147.65 213.35
Q 144.85 212.65 142.85 212.65 134.45 213.25 130.55 213.4
L 128.75 213.45 127.05 218.25 137.75 218.15 137.6 218.2 144.35 218.75
Q 146.6 219.1 148.15 219.15
L 152.55 219.6
Q 152.05 217.75 151.35 214.2
L 148.6 213.5
M 160.8 220.15
L 159.4 220.15
Q 158.1 221.6 157.15 223.95 155.65 228.1 155.65 234.45 155.65 238.9 156.3 245.65
L 157.5 255.2
Q 158.9 255.55 163.35 255.7 167.65 255.85 169.3 255.6
L 177.05 253
Q 175.7 240.35 173.55 231.35 172.6 227.4 168.35 223.75 164.15 220.3 160.8 220.15 Z"/>
</g>

<g id="Layer0_0_MEMBER_0_MEMBER_0_MEMBER_0_MEMBER_0_MEMBER_0_MEMBER_16_FILL">
<path fill="#B6E556" stroke="none" d="
M 159.4 220.15
L 148.15 219.15
Q 146.6 219.1 144.35 218.75
L 137.6 218.2 137.35 218.15 127.05 218.25
Q 122.1 218.4 119.65 218.75 115.7 219.55 113.25 220.4 112.5 221 110.4 222.7 110.55 225.25 109.65 231.15 108 241.1 108 248.35
L 108.05 255.2
Q 108.05 262.85 108.15 266
L 108.3 269.5 159.35 269.5
Q 158.3 262.05 157.5 255.2
L 156.3 245.65
Q 155.65 238.9 155.65 234.45 155.65 228.1 157.15 223.95 158.1 221.6 159.4 220.15 Z"/>
</g>

<g id="Layer0_0_MEMBER_0_MEMBER_0_MEMBER_0_MEMBER_0_MEMBER_0_MEMBER_17_FILL">
<path fill="#F99E60" stroke="none" d="
M 126.05 185
Q 125.25 184.4 124.05 184.4 122.65 184.4 122.65 186.35 122.65 188.7 125.3 190.9 127.4 192.55 129.15 192.95
L 127.8 186.4 126.05 185
M 164.35 196.25
Q 166.9 198.35 169.15 194.65 171.05 191.6 171.05 189.2 171.05 188.35 170.15 186.85 169.25 185 168.15 185 167.5 185 166.15 185.75 165.05 186.45 164.8 186.85
L 163.1 175.9
Q 162.85 179.5 161.75 184.15 160.25 190.25 158.1 193.1 156.65 194.8 151.3 198.65 147.65 201.25 147.65 204.45 147.65 204.95 148.1 206.9
L 146.15 206.9 140.25 206.4
Q 135.35 205.7 130.55 203.7
L 130.55 213.4
Q 134.45 213.25 142.85 212.65 144.85 212.65 147.65 213.35
L 148.6 213.5
Q 149.3 211.25 150.85 209.75 152.35 208.45 156.8 207 160.95 205.6 162.4 204.1 164.8 201.55 164.35 196.25 Z"/>
</g>

<g id="Layer0_0_MEMBER_0_MEMBER_0_MEMBER_0_MEMBER_0_MEMBER_0_MEMBER_18_FILL">
<path fill="#B46A38" stroke="none" d="
M 405.25 269.5
L 405.25 231.6 339.35 231.6 339.35 269.5 405.25 269.5 Z"/>
</g>

<g id="Layer0_0_MEMBER_0_MEMBER_0_MEMBER_0_MEMBER_0_MEMBER_0_MEMBER_19_FILL">
<path fill="#9F5727" stroke="none" d="
M 429.95 221.9
L 405.25 231.6 405.25 269.5 429.95 269.5 429.95 221.9 Z"/>
</g>

<g id="Layer0_0_MEMBER_0_MEMBER_0_MEMBER_0_MEMBER_0_MEMBER_0_MEMBER_20_FILL">
<path fill="#800A65" stroke="none" d="
M 460.2 163.75
L 460 163.85
Q 459.2 168.9 459.1 175.85 458.95 182.65 459.6 209.7
L 459.85 209.7 460.6 174.4
Q 460.5 168.75 461.25 163.15 461 163.35 460.2 163.75
M 455.6 156.9
Q 455.3 157.35 455 157.6
L 453.85 158.35
Q 454.25 162.35 454.6 163.65 454.85 165.1 455.85 167.2
L 455.95 167.35
Q 459.15 164.45 460 163.85
L 460.1 163.65
Q 457.85 161.7 456.85 159.95 456.2 158.85 455.6 156.9
M 469 157.4
Q 467.8 156.65 467 155.85 464.5 160.1 464 160.6 463.55 161.15 461.25 163.15
L 464.45 167.5
Q 465.6 166.05 466.6 164.5 467.45 163.05 469 157.4
M 418.6 178.4
Q 425.9 184.75 433.1 189.5
L 447.35 173.6
Q 447.4 169.3 447.85 159.35 442 160.85 432.35 175.65
L 424.75 169.65 418.6 178.4
M 502.6 177.4
L 503.1 175.2 493.75 171.75
Q 492.9 174.5 492.75 175.15 492.1 177.85 490.75 181.15
L 488.2 175.65
Q 485.95 170.65 484.25 167.45 481 161 478 160.15
L 477.35 159.95
Q 474.55 162.25 474.75 165.15
L 474.95 168
Q 474.95 168.9 475.1 169.4 476.9 176.1 477.35 178.25 477.5 179.65 477.85 180 477.95 180.15 478.2 180.15 478.35 180.15 478.75 179.75
L 479.25 179.7 480.1 181.4
Q 483.2 186.45 488.25 193.75 488.5 194 490 194.9 491.15 195.5 493.75 195.1 496.15 194.5 498.7 188.85
L 500.75 183.15
Q 501.8 179.8 502.6 177.65
L 502.6 177.4 Z"/>
</g>

<g id="Layer0_0_MEMBER_0_MEMBER_0_MEMBER_0_MEMBER_0_MEMBER_0_MEMBER_21_FILL">
<path fill="#910F73" stroke="none" d="
M 454.6 163.65
Q 454.25 162.35 453.85 158.35 452.2 159.1 449.6 159.25
L 447.85 159.35
Q 447.4 169.3 447.35 173.6
L 447.25 191.4 447.35 191.65
Q 447.25 192.25 447.25 195.75 447.25 198.9 447.1 200.45
L 447.85 208.9
Q 453.35 209.55 459.6 209.7 458.95 182.65 459.1 175.85 459.2 168.9 460 163.85 459.15 164.45 455.95 167.35
L 454.7 168.45 455.85 167.2
Q 454.85 165.1 454.6 163.65
M 477.35 159.95
L 473.5 158.9
Q 471 158.3 469.6 157.65
L 469 157.4
Q 467.45 163.05 466.6 164.5 465.6 166.05 464.45 167.5
L 461.25 163.15
Q 460.5 168.75 460.6 174.4
L 459.85 209.7
Q 469.2 209.95 478.7 208.9 477.7 196.35 477.7 194.95 477.5 186 477.85 180 477.5 179.65 477.35 178.25 476.9 176.1 475.1 169.4 474.95 168.9 474.95 168
L 474.75 165.15
Q 474.55 162.25 477.35 159.95
M 424.75 169.65
L 419.5 165 412.85 173.1 418.6 178.4 424.75 169.65
M 504.5 169.25
L 495.35 165.75
Q 494.15 170.05 493.75 171.75
L 503.1 175.2 504.45 169.65 504.5 169.25 Z"/>
</g>

<g id="Layer0_0_MEMBER_0_MEMBER_0_MEMBER_0_MEMBER_0_MEMBER_0_MEMBER_22_FILL">
<path fill="#C46D4D" stroke="none" d="
M 467 155.85
Q 465.9 154.55 465.75 152.85
L 465.75 152.45
Q 464 153.1 460.75 153.4 458.6 153.5 457 153.15 456.7 155.6 455.6 156.9 456.2 158.85 456.85 159.95 457.85 161.7 460.1 163.65
L 460.2 163.75
Q 461 163.35 461.25 163.15 463.55 161.15 464 160.6 464.5 160.1 467 155.85 Z"/>
</g>

<g id="Layer0_0_MEMBER_0_MEMBER_0_MEMBER_0_MEMBER_0_MEMBER_0_MEMBER_23_FILL">
<path fill="#DE7B70" stroke="none" d="
M 419.5 165
L 421.1 159.85
Q 421.2 157.5 418.85 158.6
L 416.5 162.4 408.85 155.7
Q 404.45 159.9 405.5 165.35 409.35 169.6 412.85 173.1
L 419.5 165
M 497.75 156.85
Q 497.6 157.25 497.1 160
L 496.1 159.2
Q 495.55 158.65 495.35 158.65 494.85 158.75 494.6 159.25 494.45 159.65 494.5 160.15 494.5 160.9 495.75 162.35
L 496.2 162.9 495.35 165.75 504.5 169.25
Q 505.9 162.6 505.75 161.4 505.6 158.45 504.5 156.9 503.15 154.95 500.75 155.15 498.55 155.25 497.75 156.85 Z"/>
</g>

<g id="Layer0_0_MEMBER_0_MEMBER_0_MEMBER_0_MEMBER_0_MEMBER_0_MEMBER_24_FILL">
<path fill="#BD7053" stroke="none" d="
M 472.7 142.25
Q 473.45 141.05 473.45 139.65 473.35 138.95 473.25 138.85 473.05 138.55 472.45 138.6 471.8 138.6 471.35 138.85
L 470 139.65 469.95 140.95 469.7 141.15 469.75 141.85 469.85 141.85 469.75 143.15 469.85 143.15
Q 470.25 143.55 470.75 143.45 471.9 143.45 472.7 142.25
M 449.85 143.65
L 449.75 139.4
Q 449.3 139 448.5 139 447.7 139.15 447.5 139.75 447.4 140.2 447.45 141.1 447.55 142.25 448.1 142.9 448.7 143.65 449.85 143.65 Z"/>
</g>

<g id="Layer0_0_MEMBER_0_MEMBER_0_MEMBER_0_MEMBER_0_MEMBER_0_MEMBER_25_FILL">
<path fill="#DE8E70" stroke="none" d="
M 459.25 131.15
Q 458.1 130.95 456.35 130.35
L 453.1 131.1 451 130.75 450.85 130.75
Q 449.95 135.1 449.75 139.4
L 449.85 143.65
Q 450.15 150.1 453.35 151.85 455 152.65 457 153.15 458.6 153.5 460.75 153.4 464 153.1 465.75 152.45 466.2 152.3 466.6 152 469.5 150.6 469.5 147.9 469.45 146.85 469.75 143.15
L 469.85 141.85 469.75 141.85 469.7 141.15 469.95 140.95 470 139.65 470.35 136
Q 469.4 134.95 468.85 134.15 468.15 132.85 468 130.45
L 467.85 129.4 467.95 128.9
Q 466.55 130.2 465.25 130.7 463.95 131.1 462 131.25 460.55 131.4 459.25 131.15
M 456.95 135
Q 457.85 135.05 458.6 135.25 458.7 138.1 458.25 139.4 457.75 141.2 456.25 141.35 454.65 141.4 453 140.85 451.35 140.25 451.25 139.15 451.1 136.95 451.95 135.95 452.6 135.25 454.25 135.15 456.3 135 456.95 135
M 460.85 140.95
L 461.1 142.15
Q 461.1 142.95 461 143.1 460.8 143.25 460.35 143.25 459.3 143.3 459.25 142.15 459.2 141.25 459.5 139.95
L 460 138.25
Q 460.45 140.1 460.85 140.95
M 459.85 144.15
L 459.95 144.35
Q 459.95 144.5 459.75 144.65
L 459.25 144.75
Q 458.75 144.8 457.45 144.65 456.1 144.5 456 144.4 456.3 144 456.6 144 457.55 144 458.45 144.1
L 459.85 144.15
M 458.35 145.25
L 458.85 145.2
Q 459.85 146.15 460.5 146.15 460.9 146.1 461.45 145.7 461.85 145.35 462 145.35
L 462.25 145.4
Q 461.65 146.3 461.25 146.5 460.7 146.8 460.35 146.75
L 459.6 146.65 458.75 146.1
Q 458.25 145.6 458.25 145.5
L 458.35 145.25
M 463.75 143.9
Q 464.25 143.9 465.1 144.4
L 465 144.5
Q 464.95 144.65 464.5 144.65 463.9 144.65 462.75 144.85 461.8 144.85 461.25 144.5 461.2 144.1 461.6 143.95
L 462.7 143.9
Q 463.45 143.85 463.75 143.9
M 463.35 141.15
Q 460.85 140.85 460.6 138.9 460.5 137.4 460.85 136.4 461.15 134.95 461.85 134.9 463.9 134.8 468 135.1
L 468.2 136.25
Q 468.35 139.1 468.1 139.75 467.8 140.85 465.85 141.1
L 465.85 141.15 465.75 141.15
Q 465.45 141.1 463.35 141.15 Z"/>
</g>

<g id="Layer0_0_MEMBER_0_MEMBER_0_MEMBER_0_MEMBER_0_MEMBER_0_MEMBER_26_FILL">
<path fill="#FEDEC7" stroke="none" d="
M 460.6 138.9
Q 460.85 140.85 463.35 141.15 465.45 141.1 465.75 141.15
L 465.85 141.15 465.85 141.1
Q 467.8 140.85 468.1 139.75 468.35 139.1 468.2 136.25
L 468 135.1
Q 463.9 134.8 461.85 134.9 461.15 134.95 460.85 136.4 460.5 137.4 460.6 138.9
M 463.45 136.9
Q 463.6 137.05 463.6 137.4 463.6 137.7 463.5 137.85 463.2 138.15 463 138.15 462.75 138.15 462.5 137.9 462.25 137.85 462.25 137.45 462.2 137.15 462.35 137 462.85 136.7 462.95 136.7 463.05 136.7 463.45 136.9
M 458.6 135.25
Q 457.85 135.05 456.95 135 456.3 135 454.25 135.15 452.6 135.25 451.95 135.95 451.1 136.95 451.25 139.15 451.35 140.25 453 140.85 454.65 141.4 456.25 141.35 457.75 141.2 458.25 139.4 458.7 138.1 458.6 135.25
M 454.85 138.25
Q 454.5 138.1 454.5 137.75 454.5 137.55 454.75 137.2
L 455.25 136.95
Q 455.55 136.95 455.75 137.15 456 137.4 456 137.65 456 137.95 455.85 138.15 455.65 138.4 455.35 138.4 455 138.45 454.85 138.25 Z"/>
</g>

<g id="Layer0_0_MEMBER_0_MEMBER_0_MEMBER_0_MEMBER_0_MEMBER_0_MEMBER_27_FILL">
<path fill="#874830" stroke="none" d="
M 460.5 146.15
Q 459.85 146.15 458.85 145.2
L 458.35 145.25 458.25 145.5
Q 458.25 145.6 458.75 146.1
L 459.6 146.65 460.35 146.75
Q 460.7 146.8 461.25 146.5 461.65 146.3 462.25 145.4
L 462 145.35
Q 461.85 145.35 461.45 145.7 460.9 146.1 460.5 146.15 Z"/>
</g>

<g id="Layer0_0_MEMBER_0_MEMBER_0_MEMBER_0_MEMBER_0_MEMBER_0_MEMBER_28_FILL">
<path fill="#CD5749" stroke="none" d="
M 461 143.1
Q 461.1 142.95 461.1 142.15
L 460.85 140.95
Q 460.45 140.1 460 138.25
L 459.5 139.95
Q 459.2 141.25 459.25 142.15 459.3 143.3 460.35 143.25 460.8 143.25 461 143.1 Z"/>
</g>

<g id="Layer0_0_MEMBER_0_MEMBER_0_MEMBER_0_MEMBER_0_MEMBER_0_MEMBER_29_FILL">
<path fill="#1E2020" stroke="none" d="
M 412.1 141.95
L 412.1 31.55 240.9 31.9 240.9 141.95 412.1 141.95
M 406.35 38
L 406.35 135.35 246.35 135.4 246.35 38.3 406.35 38 Z"/>
</g>

<g id="Layer0_0_MEMBER_0_MEMBER_0_MEMBER_0_MEMBER_0_MEMBER_0_MEMBER_30_FILL">
<path fill="#ECFFFF" stroke="none" d="
M 406.1 129.5
L 406.1 32.15 246.1 32.45 246.1 129.55 406.1 129.5 Z"/>
</g>

<g id="Layer0_0_MEMBER_0_MEMBER_0_MEMBER_0_MEMBER_0_MEMBER_0_MEMBER_30_MEMBER_0_FILL">
<path fill="#2D4E56" stroke="none" d="
M 346.3 68.3
Q 345.25 63.35 344.55 61.5 343.7 58.9 341.9 55.8 340.35 53.2 338.85 51.7 336 48.7 331.9 47.4 327.75 46.15 323.7 46.95
L 323.7 46.7
Q 312.9 47.85 308.55 53.5 307.5 54.85 305.7 58.5 303.5 63.3 302.9 65.6 302.55 67 302.1 69.65 301.65 72.4 301.35 73.65 301.25 74 300.6 76.45 300.15 78.1 299.95 79.2 299.35 82.45 300.05 88.5 301.35 99.45 304.55 105.9 306.7 110.15 309.95 113.15 313.45 116.4 317.65 117.6 321.8 118.75 327.65 117.95 332.65 117.35 335.9 115.45 339.3 113.45 342.1 109.5 345.55 104.55 346.85 98.85 347.65 95.3 347.95 88.1 348.15 80.15 347.7 76.2 347.4 73.65 346.3 68.3
M 336.2 51.4
Q 341 55.2 343.2 62.2 343.65 63.65 344.4 67 345.9 73.45 346.25 76.9 346.7 80.65 346.5 89.35 346.4 93.75 345.95 96.45 345.3 100.35 343.1 104.8 340.05 111.2 335.7 113.85 332.2 116 326.2 116.55 317.25 117.4 312.45 113.55 310.85 112.25 308.7 109.35 305.6 104.95 304.3 101.8 303.15 99.05 302.5 95.4 302.05 93.1 301.55 88.75 300.85 82.8 301.25 79.9 301.4 78.8 302.65 74.25 303.4 71.45 304.4 65.5 304.35 66.05 304.6 66.5
L 304.7 65.75 306.05 63.4 306.1 63.4
Q 306.15 62.95 306.25 62.55 306.3 62.25 306.45 61.8 306.9 62.1 307.3 61.9 307.95 61.7 307.75 61.15 307.7 60.95 307.4 60.75 307.2 60.55 306.9 60.55
L 306.8 60.6 306.75 60.6
Q 306.85 60.4 306.95 60.25 307.05 59.9 307.2 59.55 308.85 55.45 310.2 53.85 311.7 52 314.75 50.5 319 48.5 323.9 48.4
L 323.95 48.5
Q 327.05 47.7 330.4 48.55 333.6 49.3 336.2 51.4
M 313.8 98.85
L 313.85 98.85 313.25 99
Q 312.75 99.15 312.2 99.8 311.9 100.1 311.85 100.25 311.7 100.5 311.7 101.1
L 311.7 103.25
Q 311.7 103.75 311.8 104
L 311.95 104.4 312.05 105.05 312.2 105.5 312.35 106.2 312.75 107.05 313.8 108.55 315.15 110
Q 316 110.85 316.65 111.05 317.05 111.2 317.85 111.2 319 111.2 319.35 110.75 319.6 110.4 319.6 109.7
L 319.6 107.5
Q 319.6 106.5 319.5 105.95 319.4 105.2 319 103.95 318.6 102.75 318.25 102.25
L 316.9 100.45
Q 316.5 100 315.8 99.55 314.55 98.7 313.8 98.85
M 313.9 100.35
Q 314 100.25 314.25 100.25 314.25 100.5 314.55 100.6
L 314.95 100.75
Q 315.15 100.9 315.5 101.35
L 316.05 101.85 316.3 102.3 317.3 103.65
Q 317.55 104.15 317.55 104.3 317.65 104.6 317.7 105.25
L 317.95 105.75
Q 317.95 105.9 317.9 106.2
L 318.1 106.45
Q 318.2 106.65 318.2 107
L 318.15 109.65 317.1 109.7
Q 316 108.6 315.75 108.25 315.3 107.6 315.1 107.45 314.45 107.05 314.4 107 314.4 106.4 314.25 106.15 313.8 105.85 313.7 105.6
L 313.55 104.55 313.2 103.4
Q 313.1 103.1 313.1 102.55
L 313.1 101.55
Q 313.1 101.25 313.2 101.1 313.25 100.95 313.55 100.75 313.85 100.55 313.9 100.35
M 308.05 97.35
L 307.95 97.15
Q 307.8 96.9 307.35 96.75
L 307.35 96.85
Q 307.2 96.75 306.8 97
L 306.7 97.2 306.65 97.35
Q 306.65 97.75 306.75 97.9
L 307 98.05 307.45 98.15
Q 307.7 98.15 307.85 97.95
L 307.95 97.75
Q 308.15 97.6 308.05 97.35
M 311 90.9
L 310.85 91.35
Q 310.85 91.85 311.35 92 311.8 92.15 312.15 91.95
L 312.35 91.85 312.6 91.35
Q 312.6 91.2 312.4 91
L 312.2 90.8
Q 312.05 90.65 311.6 90.65
L 311.5 90.7
Q 311.1 90.8 311 90.9
M 314.65 81.6
Q 314.4 81.1 314.25 80.9 313.9 80.5 313.1 80.5
L 311.85 80.5 311.9 80.55
Q 311.85 80.65 311.55 80.65 311.3 80.7 311.1 81.1
L 310.6 82.8 310.4 83.2
Q 310.3 83.4 310.3 83.9
L 310.3 85.15
Q 310.3 85.5 310.4 85.7
L 310.85 86.95 311.25 87.75
Q 311.9 88.75 312.25 89
L 312.8 89.35 313.3 90.15
Q 313.45 90.35 314.1 90.8 314.9 91.2 314.95 91.2 315.4 91.3 315.85 91.1 316.3 90.85 316.5 90.45
L 316.6 89.6 316.6 87.95
Q 316.6 87.2 316.45 86.85 316.2 85.95 316.2 85.9
L 316.2 85.4
Q 316.05 85.15 316 85 315.95 84.4 315.9 84.05 315.85 83.7 315.6 83.2 315.2 82.55 315.15 82.4
L 314.95 81.95
Q 314.7 81.7 314.65 81.6
M 314.2 83.8
Q 314.55 84.4 314.55 84.9
L 314.55 85.4 314.75 85.7
Q 314.85 85.85 314.85 86.15
L 314.8 86.85 314.85 87.2
Q 314.85 87.25 315 87.55 315.2 87.9 315.2 88.7
L 315.1 89.55
Q 314.55 89.3 314.4 88.95
L 314.2 88.5 313.8 88.05 313.3 87.15
Q 312.9 86.55 312.55 86.4
L 312.15 86.25
Q 312.05 86.15 312.1 85.9 312.1 85.6 312.05 85.5 311.8 85.2 311.75 85
L 311.7 84.6
Q 311.65 84.05 311.8 83.8
L 312.05 83.35 312.1 82.9 312.25 82.5
Q 312.35 82.3 312.25 82.05
L 312.9 82 313.1 82.05
Q 313.15 82.05 313.3 82.2
L 314.2 83.8
M 303.55 86.7
L 303.65 87.2
Q 303.75 87.4 303.9 87.45 304.25 87.7 304.55 87.45 304.85 87.4 304.95 86.95 304.95 86.5 305.05 86.35
L 305.25 86.1 305.3 85.55 305.3 82.4
Q 305.15 82.05 304.65 81.85
L 304.65 81.9
Q 304.3 81.9 304.05 82.15
L 303.8 82.65 303.6 82.95 303.55 83.4 303.55 86.7
M 321.3 67.7
Q 319.9 67.75 319.25 67.95 318.55 68.25 317.85 68.7
L 315.5 70.15
Q 314.9 70.9 314.6 71.25 314 71.85 313.95 72.15 313.95 72.5 314.2 72.7 314.4 72.95 314.7 72.9 315.05 72.9 315.5 72.35 316.35 71.35 316.5 71.25 317.1 70.7 318.55 70 319.35 69.5 319.4 69.5 319.6 69.4 320.7 69.3 321.2 69.25 322.3 69.05 322.85 69.05 323.15 69 323.65 68.9 323.8 68.45 323.9 67.9 323.35 67.65 323.05 67.55 322.4 67.55 321.75 67.65 321.45 67.55
L 321.4 67.55
Q 321.45 67.6 321.3 67.7
M 308.25 71.25
Q 308.15 71.4 308.05 71.3 307.75 71.3 307.6 71.55
L 307.25 72.7 307.2 74.7
Q 307.2 75 307.3 75.1
L 307.5 75.3
Q 308 75.6 308.4 75.3
L 308.6 75 309.15 73.65 309.2 73.2 309.35 72.8
Q 309.6 72.35 309.4 72 309.3 71.8 308.85 71.55
L 308.25 71.25
M 313.85 67.35
Q 313.65 67.55 313.45 67.95
L 311.7 69.9 311.45 70.35
Q 311.4 70.6 311.55 70.9 311.7 71.2 312 71.25 312.5 71.25 313 70.65 314.85 68.4 315.75 67.8
L 316.35 67.5 316.95 67.4
Q 318.05 67.2 318.6 67.2
L 320.8 67.2
Q 321.6 67.3 321.85 67.25 322.1 67.15 322.3 66.95 322.45 66.65 322.35 66.45 322.3 66.3 322 66.1 321.55 65.75 321.3 65.7 321.05 65.6 320.5 65.6
L 318.1 65.6
Q 318.2 65.7 318.05 65.7 316.8 65.8 316.15 66 315.55 66.15 315 66.55
L 314.35 66.95 313.85 67.35
M 312.45 60
L 312.4 60.1
Q 312.25 60 311.85 60.25
L 311.75 60.45 311.7 60.6
Q 311.7 61 311.85 61.1
L 312.1 61.3 312.45 61.4 312.65 61.35 312.9 61.2
Q 313 61.15 313.1 60.85
L 313.1 60.6 313 60.4
Q 312.7 60 312.45 60
M 318.4 60.05
Q 318.6 60.25 318.9 60.25
L 319.2 60.2
Q 319.55 60.05 319.55 59.7 319.65 59.4 319.35 59.1 319.25 59 318.9 58.9
L 318.85 58.95
Q 318.55 58.95 318.3 59.2
L 318.2 59.35 318.15 59.5
Q 318.15 59.8 318.4 60.05
M 314.1 53.3
L 314.1 53.35
Q 313.95 53.25 313.55 53.5
L 313.45 53.7 313.4 53.85
Q 313.4 54.25 313.5 54.35 313.75 54.6 313.95 54.6
L 314.15 54.65 314.6 54.45 314.7 54.3
Q 314.85 54.05 314.85 53.9
L 314.7 53.65
Q 314.4 53.25 314.1 53.3
M 326.75 112.05
L 326.75 112.1
Q 326.5 112.1 326.25 112.25 326.05 112.4 326.05 112.8
L 326.15 113.1
Q 326.25 113.25 326.6 113.35
L 326.8 113.4
Q 327.2 113.4 327.35 113.1
L 327.45 112.85
Q 327.5 112.6 327.3 112.3
L 326.75 112.05
M 327.3 105.75
Q 327.4 105.85 327.25 105.85 326.75 105.95 326.65 106.2
L 326.6 106.5 326.65 106.8 327.2 107.4
Q 327.65 107.5 327.75 107.45
L 328.05 107.3
Q 328.3 107.15 328.3 106.9 328.35 106.8 328.25 106.6 328 106 327.3 105.75
M 334.2 109.7
L 334.2 109.45 334.1 109.25
Q 333.9 109 333.5 108.9 333.2 108.85 332.95 109.1
L 332.85 109.3 332.8 109.45
Q 332.8 109.8 332.9 109.95
L 333.15 110.15 333.6 110.25
Q 333.9 110.25 334.05 110
L 334.2 109.7
M 338.4 97.45
Q 338.4 97.6 338.2 97.8
L 337.65 99.2
Q 337.4 99.7 337.35 99.75 336.95 100 336.85 100.2 336.75 100.35 336.75 100.75
L 336.75 101.75
Q 336.75 102.15 336.85 102.35 336.9 102.5 337.15 102.75 337.25 102.85 337.6 102.95 337.75 103.05 338.1 103.05
L 339.45 103 340.05 102.75
Q 340.95 102.15 341.5 101.5
L 341.8 101.05 342.05 100.55
Q 342.15 100.15 342.3 99.95 342.55 99.6 342.6 99.4 342.7 99.2 342.7 98.8
L 342.65 96.95 342.6 96.6
Q 342.6 96.55 342.45 96.25
L 342.3 95.8
Q 342.05 95.4 341.6 95.4 341.25 95.35 340.8 95.4
L 340.15 95.65
Q 339.25 96.55 338.7 96.9 338.5 97.15 338.45 97.2
L 338.4 97.45
M 339.45 98.6
L 340 97.65
Q 340.35 97.15 341.1 97.05
L 341.25 97.05 341.25 98.85 340.3 100.45 340.15 100.65 340.1 100.9
Q 339.8 101.05 339.65 101.15 339.45 101.3 339.3 101.4 339.15 101.5 338.75 101.5 338.25 101.45 338.15 101.45
L 338.15 101.05
Q 338.55 101 338.75 100.45 339.15 99.2 339.45 98.6
M 325.2 74.7
Q 325.2 74.55 325 74.35 324.7 74.05 323.95 74.05
L 322.8 74.05 322.85 74.1
Q 321.45 74.45 320.6 75
L 319.2 75.95
Q 318.7 76.2 318.55 76.35 318.15 77 317.9 77.35 317.4 78.25 317.4 78.45 317.4 78.8 317.7 79 318.1 79.2 318.35 79.05 318.5 79 318.75 78.75 319.05 78.4 319.5 77.6
L 320.05 77.1 320.35 76.9 320.6 76.8
Q 320.8 76.75 320.9 76.55 321.4 76.15 321.7 76.05
L 322.35 75.85 324.75 75.4
Q 325.35 75.2 325.2 74.7
M 336.95 79.15
Q 336.25 77.15 335.25 76.5 334.55 76.05 333.5 76 332.9 75.95 331.55 76.05
L 331.55 76.1
Q 331 76.2 330.1 76.2
L 328.65 76.25
Q 325.4 76.5 322.7 78.4
L 321.6 79.35
Q 321.2 79.8 320.95 80.3 320.7 80.95 320.7 81.9
L 321 88.7
Q 321.2 90.6 321.45 91.55 321.95 93.95 321.95 94.35 321.95 94.6 321.95 95.4 321.9 96.05 322 96.45 322.2 97.3 322.95 98.05 324.2 99.3 326 99.8 327.75 100.25 329.45 99.75
L 331.15 99.05
Q 334.6 97.45 335.9 95.8 337.1 94.25 337.6 92
L 337.75 90.85
Q 337.9 89.8 337.9 87.6 337.9 83.85 337.65 81.95 337.45 80.6 336.95 79.15
M 334.5 77.85
Q 334.95 78.15 335.25 79 335.55 79.7 336.15 82.15
L 336.3 83.1
Q 336.45 83.9 336.45 85.5
L 336.5 88.45
Q 336.5 90.05 336.3 90.85
L 335.4 93.7 335.05 94.55 334.35 95.25
Q 333.5 96 333 96.3 332.6 96.65 331.8 97.05 330.2 97.95 328.9 98.25 327.25 98.65 325.85 98.15 324.7 97.75 323.95 96.65 323.2 95.6 323.25 94.35 323.35 93.05 323.25 92.7 323 92.15 322.95 91.85 323.05 91.15 322.9 90.85 322.65 90.35 322.65 90.3 322.65 90.25 323 89.9 323.55 89.4 322.95 88 322.05 85.85 322.05 83.15 322.05 82.2 322.25 81.55 322.9 79.4 325.75 78.45 327.15 77.9 328.95 77.8 331.15 77.65 331.4 77.6
L 331.4 77.55 332.6 77.5
Q 333.95 77.4 334.5 77.85
M 333.9 91.05
Q 333.65 91.3 333.15 91.2
L 332.45 91.25 332.05 91.55
Q 331.85 91.7 331.7 92
L 331.65 92.5 331.65 94.35 329.95 94.5
Q 329.5 94.5 329.25 94.6 328.95 94.8 328.9 94.95
L 328.85 95.45
Q 328.85 95.75 328.95 95.9 329 96.05 329.3 96.15 329.55 96.35 329.8 96.25
L 330.05 96.1 330.35 96.05 332.2 95.9
Q 332.3 95.9 332.7 95.6
L 333 95.3
Q 333.1 95 333.05 94.8
L 333.05 92.85 334.1 92.95
Q 334.65 92.85 334.75 92.75 335.1 92.45 335.1 91.9 335.1 91.4 334.9 91.2 334.75 91 334.35 90.9
L 334.15 90.9 333.9 91.05
M 329.7 83.1
Q 329.55 83.1 329.25 83.4 327.95 84.6 327.8 85.6
L 327.8 86.75
Q 327.8 87.25 327.75 88.25 327.75 89.1 328 89.65 328.15 90 328.6 90.55 328.95 91 329.4 91.15
L 331.45 91.2 332.2 91
Q 333 90.6 333.1 90.5 333.3 90.3 333.45 89.9 333.6 89.7 333.6 89.45
L 333.65 88.9 333.6 85.8 333.35 85.35
Q 332.6 84.25 332.4 84
L 332 83.6
Q 331 82.85 329.85 83.1
L 329.7 83.1
M 325.2 80.4
Q 324.9 80.25 324.5 80.25 324.1 80.3 323.55 81.2 323.15 81.95 323.05 82.5 322.95 82.8 322.95 83.4 322.9 83.8 323.05 84.3 323.35 84.95 324.8 85.3
L 324.25 86.75 324.1 87.3 324.1 88.55
Q 324 89.2 324.15 89.45
L 324.7 89.8 325.6 90.2
Q 326 90.4 326.15 90.6 326.35 90.85 326.35 91.5
L 326.3 92.9
Q 326.3 93.4 326.4 93.6 326.55 93.8 327 94.05 327.85 94.5 328.65 94.55 329.2 94.55 329.4 94.4 329.85 94.1 329.7 93.7 329.6 93.35 329 93.15
L 328.25 93
Q 327.95 93 327.85 92.85 327.75 92.75 327.75 92.45
L 327.8 90.9
Q 327.8 90.25 327.65 89.95 327.5 89.65 327.15 89.35 326.4 88.75 325.5 88.45 325.4 88.05 325.95 86.8 326.35 85.9 326.35 85.05 326.35 84.5 326.15 84.3 326 84.05 325.5 83.85
L 324.7 83.65
Q 324.45 83.55 324.45 83.5 324.3 83.4 324.55 82.8 324.75 82.5 324.95 81.8 325.5 81.15 325.5 81 325.5 80.7 325.2 80.4
M 335.05 82.75
L 335.05 81.95
Q 334.9 81.45 334.2 81.35
L 333.05 81.2
Q 333.2 80.65 332.85 80.05 332.7 79.65 332.3 79.5 332.1 79.4 331.7 79.4 330.15 79.4 329.6 79.9
L 329.3 80.1
Q 329.1 80.2 328.9 80.1 328.65 80 328.6 79.8
L 328.55 79.35
Q 328.4 78.95 327.85 78.85
L 327.8 78.9
Q 327.75 78.95 327.7 78.9 327.3 78.9 327.2 79.4
L 327.2 80.15
Q 327.1 80.7 327.25 80.95 327.35 81.15 327.75 81.35 328.65 81.7 329.45 81.7 329.9 81.7 330.2 81.55
L 330.65 81.15
Q 331.1 80.85 331.6 81 331.65 81.15 331.65 81.75 331.65 82.3 331.85 82.5 331.95 82.65 332.35 82.75 332.75 82.85 333.7 82.85 333.55 83.65 333.9 84.15
L 334.1 84.45 334.8 85.2
Q 335.15 85.4 335.5 85.2 335.8 85.05 335.9 84.65 335.95 84.2 335.55 83.7 335.1 83 335.05 82.75
M 340.3 78.1
Q 340.25 77.95 339.9 77.5
L 339.5 76.75
Q 339.2 76.35 338.85 76.35
L 338.55 76.4
Q 338.25 76.55 338.15 76.95
L 338.3 77.6 338.7 78.25
Q 339 78.8 339 78.9
L 339.05 79.3 339.2 79.5
Q 339.3 79.65 339.3 80.05 339.3 80.1 339.45 80.4
L 339.6 81.15 339.6 81.75 339.75 82.05
Q 339.85 82.25 339.85 82.75
L 339.8 85.15
Q 339.8 85.6 339.95 85.8 340.25 86.4 340.8 86.1 341.1 85.9 341.25 85.5
L 341.3 84.75 341.2 81.65 340.95 80.95 340.95 80.15 340.7 79.65 340.65 79.15 340.3 78.1
M 341.1 76.05
Q 341.1484375 76.0515625 341.1 76.1
L 341 76.1
Q 340.55 76.1 340.45 76.55 340.3 76.8 340.5 77.25
L 340.65 78
Q 340.65 78.3 340.75 78.4
L 340.9 78.6
Q 341.05 78.75 341 79.2
L 341.25 79.6 341.25 80.25
Q 341.3 80.5 341.55 80.9
L 341.55 81.45 341.7 81.75
Q 341.85 81.9 341.85 82.4
L 341.8 84.85
Q 341.8 85.25 341.9 85.45 342 85.75 342.35 85.85 342.7 85.95 342.95 85.7 343.2 85.5 343.2 84.75
L 343.2 82.15
Q 343.2 81.5 343.1 81.15
L 342.9 80.7 342.9 79.95 342.65 79.55 342.65 79.1 342.45 78.8
Q 342.4 78.75 342.4 78.15
L 341.8 76.55
Q 341.501171875 76.051953125 341.1 76.05
M 343.35 77.2
L 343 77.25 342.75 77.5
Q 342.6 77.7 342.7 78 342.7 78.65 342.9 79.05 343.1 79.5 343.15 79.65 343.3 79.9 343.2 80.35
L 343.2 81 343.25 81.2 343.45 81.45 343.5 81.9 343.5 83.1
Q 343.5 83.45 343.6 83.55
L 343.8 83.8
Q 344.35 84 344.65 83.75 344.9 83.5 344.9 82.8
L 344.9 81.35 344.85 81 344.7 80.75
Q 344.6 80.65 344.6 80.35
L 344.65 79.55
Q 344.65 79.1 344.55 78.9
L 344.25 78.55 344.2 78.15
Q 344.05 77.4 343.35 77.15
L 343.35 77.2
M 335.25 65.65
L 335.2 65.6 335.2 65.7
Q 334.75 65.6 334.55 66.05 334.5 66.2 334.6 66.9
L 334.5 69.35 334.55 70 334.75 70.3 334.8 70.55 334.95 70.8
Q 335.3 71.35 335.4 71.45 335.55 71.65 335.85 71.95
L 335.95 72.2
Q 336 72.45 336.3 72.65 336.65 73.05 337.05 73.2
L 338.8 73.2
Q 339 73.15 339.15 72.9 339.45 72.6 339.5 72.45 339.6 72.25 339.6 71.9
L 339.6 70.05 339.55 69.6 338.75 68.35 338.55 67.9 338.2 67.5 338 67.1 337.65 66.65
Q 336.95 65.85 336.45 65.7 336.05 65.55 335.25 65.65
M 336 67.2
Q 336.2 67.15 336.35 67.3 336.75 67.65 337.1 68.6
L 337.3 68.95 337.35 69.15 337.55 69.45 338.05 69.9
Q 338.2 70.2 338.2 70.8 338.2 71.4 338.1 71.65 337.5 71.75 337.25 71.45
L 337.1 71.2
Q 337.05 71.05 336.8 70.8
L 336.6 70.65 336.4 70.35 336.05 69.7
Q 335.9 69.35 335.9 68.65 335.9 67.95 336.05 67.2
L 336 67.2
M 324.35 71.05
Q 324.35 70.8 324.1 70.65 323.75 70.4 323.05 70.4
L 321.95 70.4 322 70.45 320.25 70.95 319.55 71.25 318.8 71.85
Q 318.55 72.2 318.35 72.35
L 317.9 72.6
Q 317.3 72.85 317.05 73.5
L 316.85 73.9 315.95 75
Q 315.65 75.3 315.65 75.55 315.6 75.95 315.9 76.15 316.25 76.4 316.55 76.25 316.7 76.2 317.15 75.75
L 317.85 74.9
Q 318.6 74.05 318.75 73.9
L 319.5 73.15 319.95 72.8 320.55 72.6 321.2 72.25 322.7 71.85
Q 323.6 71.85 323.75 71.8 324.5 71.6 324.35 71.05
M 328.6 73.8
L 328.85 74.1
Q 329.15 74.35 329.55 74.25
L 329.95 73.8 330 73.55
Q 330 73.35 329.85 73.2 329.55 72.9 329.3 72.9
L 329.25 72.9
Q 329.2 72.9 329.15 72.9 329.1 72.9 328.7 73.15
L 328.6 73.3 328.55 73.45 328.6 73.8
M 324.6 64.4
L 324.2 64.2 324.2 64.25
Q 324.05 64.2 323.7 64.45
L 323.55 64.6 323.5 64.85 323.55 65.2 323.75 65.4
Q 323.95 65.6 324.25 65.6 324.6 65.6 324.75 65.4 324.9 65.25 324.9 65.05
L 324.9 64.75
Q 324.85 64.55 324.6 64.4
M 331.8 67.85
L 331.8 67.95
Q 331.4 67.95 331.15 68.25 331.1 68.5 331.15 68.7
L 331.2 68.95 331.35 69.05
Q 331.8 69.3 331.95 69.25 332.2 69.25 332.35 69 332.4 68.95 332.55 68.7 332.55 68.4 332.3 68.15 332.25 68.1 331.8 67.85
M 335.35 61.6
Q 335.35 61.35 335.05 61.05 335 61 334.5 60.75 333.6 60.35 333.1 60.25 333.05 60.25 332.15 60.1 331.4 60 329.85 60
L 329.85 60.05
Q 328.8 60.2 327.85 60.5
L 327.15 60.75
Q 326.45 60.85 326.15 61.2 325.95 61.5 326.1 61.8 326.2 62.1 326.5 62.2
L 327.25 62.15
Q 329.45 61.45 330.6 61.45
L 332.95 61.7 333.45 61.95 333.8 62.2
Q 334.2 62.3 334.4 62.25 334.8 62.25 335 62.1 335.25 61.9 335.35 61.6
M 335.05 59.45
Q 334.95 59.15 334.5 58.9
L 333.45 58.35
Q 332.95 58.05 332.6 58 332.05 57.9 331.8 57.85 330.2 57.7 328.2 57.8
L 328.2 57.75 325.95 58.3
Q 325.55 58.4 325.45 58.5 325.25 58.65 325.2 58.95 325.15 59.25 325.35 59.45 325.6 59.7 326.1 59.7
L 326.9 59.45
Q 327.9 59.2 329.95 59.2
L 332.3 59.45 332.65 59.7
Q 333.2 60.15 333.9 60.25 334.45 60.35 334.75 60.15 335.15 59.85 335.05 59.45
M 335.55 57.9
Q 335.8 57.5 335.4 57.1 335.3 56.9 334.7 56.55
L 333.6 56.05
Q 332.4 55.35 331.45 55.05 329.6 54.5 326.25 54.7
L 326.2 54.7
Q 323.05 55.1 320.6 57
L 320.2 57.4
Q 320 57.95 320.5 58.2 320.8 58.4 321.2 58.2
L 321.85 57.8
Q 322.8 57.15 325 56.45 326.15 56.15 326.25 56.15 326.5 56.1 327.05 56.1 329.15 56.1 330.2 56.25 331.15 56.5 331.95 56.85
L 334.05 57.9
Q 334.55 58.2 334.8 58.2 335.3 58.3 335.55 57.9
M 335.05 54.8
Q 335.05 54.35 334.6 54.1
L 333.8 53.7
Q 333.6 53.5 333.4 53.35 333.6 53.15 333.65 52.85 333.8 52.3 333.25 52
L 332.75 51.8 330.95 50.55
Q 330.2 50.15 329.55 50 328.85 49.85 327.45 49.85
L 324.2 49.85 324.25 49.95 323.1 50.25
Q 322.65 50.35 322.2 50.55 321.6 51.05 321.2 51.3 320.6 51.6 320.5 51.7 320.05 51.95 320.15 52.4 320.2 52.7 320.5 52.85 320.8 53 321.1 52.9 321.3 52.85 322.1 52.3 322.8 51.85 323.25 51.75 324.25 51.4 326.35 51.4
L 327.45 51.4
Q 329.1 51.5 329.55 51.65 330.15 51.8 330.75 52.2
L 329.95 52
Q 329.25 51.85 327.95 51.85 326.45 51.9 325.95 51.85
L 325.95 51.9
Q 325.8 51.9 324.2 52.45
L 323.25 52.7 320.2 54.7 320.15 54.75
Q 320.15 54.6 320 54.45 319.75 54.1 319.5 54.15
L 319.5 54.1 319.45 54.15
Q 319.15 54.1 318.9 54.35
L 318.8 54.55 318.75 54.7
Q 318.75 55.1 318.9 55.25
L 319.3 55.45 319.45 55.5 319.65 55.45
Q 319.65 55.8 320.05 56 320.45 56.1 321.1 55.75 323.95 53.9 325.2 53.55 326.35 53.25 328.75 53.35
L 329.75 53.45 331.75 54.05
Q 332.05 54.2 333.15 55.05 333.7 55.5 334.25 55.5 334.55 55.5 334.8 55.3 335.05 55.1 335.05 54.8 Z"/>
</g>

<g id="Layer0_0_MEMBER_0_MEMBER_0_MEMBER_0_MEMBER_0_MEMBER_0_MEMBER_31_FILL">
<path fill="#FFFFFF" stroke="none" d="
M 152.8 135.2
Q 145 127.4 134.05 127.4 123.05 127.4 115.3 135.2 107.55 142.95 107.55 153.95 107.55 164.9 115.3 172.65 123.05 180.45 134.05 180.45 145 180.45 152.8 172.65 160.55 164.9 160.55 153.95 160.55 142.95 152.8 135.2 Z"/>
</g>

<g id="Layer0_0_MEMBER_0_MEMBER_0_MEMBER_0_MEMBER_0_MEMBER_0_MEMBER_31_MEMBER_0_FILL">
<path fill="#000000" stroke="none" d="
M 134.95 173.5
L 135 173.5
Q 134.45 173.65 134.15 173.85
L 133.75 174.2
Q 133.4 174.65 133.3 174.85 133.1 175.3 133.2 176.25 133.25 176.7 133.4 176.9 133.6 177.2 134.05 177.35
L 134.5 177.4
Q 134.7 177.4 134.75 177.35 134.9 177.35 135 177.25
L 135.3 177
Q 135.75 176.55 135.65 175.85 135.55 175.6 135.45 175.45
L 135.25 175.25
Q 134.5 174.7 133.8 175
L 133.55 175.2 133.6 174.95 133.75 174.75
Q 134.25 173.9 135 173.75 135.2 173.65 135.15 173.55 135.15 173.45 134.95 173.5
M 134.7 175.35
L 134.75 175.4
Q 134.95 175.45 135.15 175.6 135.25 175.75 135.25 175.95 135.3 176.05 135.3 176.2
L 135.2 176.5 135.2 176.6 135.15 176.6
Q 135.1 176.7 135.1 176.75
L 135.05 176.75 134.95 176.8 134.65 177 134.1 177 134.05 176.95
Q 133.9 176.95 133.85 176.9
L 133.7 176.7 133.65 176.65
Q 133.6 176.5 133.55 176.3
L 133.5 175.85
Q 133.55 175.85 133.65 175.7
L 133.75 175.5 133.9 175.4
Q 134 175.3 134.1 175.3
L 134.25 175.3
Q 134.45 175.25 134.7 175.35
M 155.9 152.85
Q 156.1 152.8 156.2 152.85
L 156.4 153
Q 156.55 153.15 156.6 153.3 156.6 153.5 156.45 153.7 156.25 153.95 155.9 154 155.75 154 155.65 154.05 155.55 154.2 155.65 154.3 155.75 154.4 155.9 154.4 156.25 154.45 156.45 154.6 156.75 154.75 156.85 155 156.95 155.3 156.8 155.55 156.7 155.65 156.5 155.8
L 156.3 155.9
Q 156.05 156 155.8 155.9 155.65 155.85 155.35 155.65 155.3 155.55 155.2 155.55 155.1 155.55 155.1 155.65 155.05 155.7 155.05 155.75 155.05 155.85 155.2 155.95 155.45 156.25 155.8 156.3 156.45 156.45 156.95 155.9 157.15 155.75 157.25 155.5 157.3 155.3 157.25 155.1 157.25 155 157.2 154.8 157.15 154.65 157 154.55 156.8 154.35 156.45 154.15 156.6 154.1 156.7 153.9 156.95 153.55 156.95 153.3 156.9 153.05 156.5 152.7 156.3 152.5 156.15 152.55 155.55 152.55 155.2 152.9
L 155.1 153
Q 155.05 153.1 155.15 153.15
L 155.2 153.2
Q 155.25 153.05 155.5 152.9
L 155.9 152.85
M 112.65 152.65
L 112.65 152.6
Q 112.15 152.7 112.1 152.75 111.8 152.85 111.6 153.05 111.4 153.35 111.4 153.9 111.4 154.05 111.5 154.2 111.5 154.3 111.65 154.45 111.9 154.7 112.15 154.8 112.45 154.95 112.85 154.85 113.1 154.8 113.55 154.6 113.4 155 113.2 155.3 112.85 155.7 112.3 155.95 111.95 156.1 111.8 156.25 111.75 156.3 111.75 156.35 111.8 156.5 111.9 156.5 112 156.5 112.1 156.45 113.2 155.9 113.55 155.4 113.7 155.2 113.85 154.85
L 114.05 154.3 114.1 154.05
Q 114.05 153.65 113.9 153.3 113.65 152.95 113.35 152.75
L 113.15 152.65
Q 112.95 152.6 112.65 152.65
M 112.65 152.95
L 112.7 152.95
Q 112.9 152.95 113.1 153.05
L 113.2 153.05 113.5 153.35
Q 113.55 153.4 113.6 153.55
L 113.65 153.7
Q 113.75 153.9 113.7 154
L 113.65 154.05
Q 113.6 154.15 113.55 154.15 113.55 154.2 113.45 154.25 113.4 154.3 113.4 154.35
L 112.85 154.55 112.5 154.55
Q 112.3 154.55 112.15 154.4
L 111.95 154.25 111.85 154.15
Q 111.75 154.05 111.75 154
L 111.75 153.9
Q 111.7 153.7 111.8 153.4 111.9 153.25 112 153.15
L 112.15 153.1
Q 112.4 152.95 112.65 152.95
M 132.15 132.25
Q 132.5 132.3 132.65 132.3 132.65 133.75 132.65 135.2
L 132.65 135.3
Q 132.7 135.4 132.8 135.4 132.9 135.4 132.95 135.3 133 135.25 133 135.05
L 132.95 133.35
Q 132.95 132.6 133 131.85 133.05 131.75 133 131.65 133 131.55 132.85 131.5
L 132.75 131.55
Q 132.7 131.6 132.7 131.95 132.4 132 132.2 132
L 132.05 132
Q 131.95 132.05 131.95 132.1 131.95 132.25 132.15 132.25
M 134.75 131.85
Q 134.6 131.9 134.6 132 134.6 132.15 134.75 132.15
L 134.85 132.1
Q 135.2 131.9 135.4 131.85 135.8 131.8 136 132 136.1 132.1 136.2 132.35 136.3 132.7 136.2 133 136.2 133.05 136.1 133.3 135.6 134.35 134.6 134.95 134.4 135.1 134.45 135.2 134.45 135.3 134.55 135.35
L 134.75 135.4
Q 134.95 135.4 135.3 135.45
L 135.8 135.45
Q 136 135.45 136.5 135.4 136.65 135.4 136.7 135.4 136.8 135.35 136.85 135.25 136.85 135.1 136.7 135.05 136.55 135 136.45 135.05 135.85 135.1 135.15 135.05 135.45 134.8 135.8 134.4 136.1 134.05 136.35 133.55 136.55 133.2 136.55 133.1 136.6 132.85 136.6 132.55 136.6 132.3 136.55 132.15 136.45 131.9 136.15 131.65
L 135.95 131.55
Q 135.8 131.45 135.5 131.5
L 135.45 131.5
Q 135.05 131.55 134.75 131.85 Z"/>

<path fill="#E23F27" stroke="none" d="
M 133.95 150.3
Q 133.55 150 133.15 149.8 132.35 149.35 131.4 148.9
L 131.05 148.9
Q 131.8 149.3 131.95 150.2
L 131.95 154.15
Q 132.05 156.4 133.7 156.5
L 135.15 156.5
Q 136.85 156 136.45 153.5 136.35 152.75 135.9 152.1 135.25 151.2 134.05 150.35 134 150.3 133.95 150.3
M 133.45 154.45
Q 133.45 154.1 133.7 153.85 133.95 153.6 134.3 153.6 134.65 153.6 134.9 153.85 135.15 154.1 135.15 154.45 135.15 154.85 134.9 155.1 134.6 155.4 134.25 155.4 133.9 155.4 133.65 155.1 133.45 154.85 133.45 154.45 Z"/>

<path fill="#EBDD44" stroke="none" d="
M 134.3 149.95
Q 134.3 150 134.35 150 135.5 150.8 136.4 151.8 136.35 150.3 137.35 148.7 136.65 148.45 136.05 148.55 135.85 148.6 135.7 148.65 135.6 148.65 135.5 148.7 135.2 148.85 134.95 149.15 134.65 149.4 134.4 149.85 134.35 149.9 134.3 149.95 Z"/>

<path fill="#85AD32" stroke="none" d="
M 134.35 147.35
L 135.1 148.45
Q 135.25 148.45 135.35 148.4 135.65 148.25 135.4 147.75 136.3 147.1 135.9 146.7
L 134.35 147.35 Z"/>

<path fill="#8E609F" stroke="none" d="
M 134.2 148.1
Q 133.5 147.15 132.45 147.45 133.1 147.7 133.15 148.8 133.2 149.15 133.4 149.35 133.6 149.5 133.95 149.55
L 134.6 148.85
Q 134.45 148.4 134.2 148.1 Z"/>
</g>

<g id="Layer0_0_MEMBER_0_MEMBER_0_MEMBER_0_MEMBER_0_MEMBER_0_MEMBER_31_MEMBER_0_MEMBER_0_FILL">
<path fill="#000000" stroke="none" d="
M 154.8 134.1
Q 146.25 125.5 134.15 125.5 122.05 125.5 113.45 134.1 104.95 142.75 104.95 155 104.95 167.15 113.45 175.8 122.05 184.45 134.15 184.45 146.25 184.45 154.8 175.8 163.35 167.15 163.35 155 163.35 142.75 154.8 134.1
M 134.15 125.85
Q 146.1 125.85 154.55 134.35 163 142.9 163 155 163 167 154.55 175.55 146.1 184.1 134.15 184.1 122.2 184.1 113.7 175.55 105.3 167 105.3 155 105.3 142.9 113.7 134.35 122.2 125.85 134.15 125.85
M 151.7 137.05
Q 144.4 129.7 134.15 129.7 123.9 129.7 116.6 137.05 109.35 144.4 109.35 154.75 109.35 165.1 116.6 172.4 123.9 179.75 134.15 179.75 144.4 179.75 151.7 172.4 158.95 165.1 158.95 154.75 158.95 144.4 151.7 137.05
M 134.15 130.1
Q 144.25 130.1 151.4 137.3 158.6 144.55 158.6 154.75 158.6 164.95 151.4 172.15 144.25 179.4 134.15 179.4 124.05 179.4 116.85 172.15 109.7 164.95 109.7 154.75 109.7 144.55 116.85 137.3 124.05 130.1 134.15 130.1
M 124.05 172.4
Q 124.1 172.35 124.05 172.3 124.05 172.2 123.95 172.2 123.9 172.1 123.85 172.15 123.75 172.15 123.75 172.25
L 122.6 174.1
Q 122.5 174.2 122.55 174.25 122.55 174.3 122.65 174.35 122.7 174.4 122.8 174.4 122.85 174.35 122.9 174.3
L 124.05 172.4
M 152.4 164.5
Q 152.35 164.45 152.3 164.45 152.2 164.5 152.15 164.55 152.1 164.6 152.15 164.7 152.15 164.75 152.2 164.8
L 154 166.1
Q 154.05 166.15 154.15 166.15 154.25 166.1 154.25 166.05 154.3 166 154.3 165.95 154.3 165.85 154.25 165.8
L 152.4 164.5
M 144.45 172.45
Q 144.45 172.5 144.5 172.55
L 145.8 174.4
Q 145.85 174.45 145.95 174.45 146 174.45 146.05 174.4 146.1 174.4 146.1 174.3 146.15 174.2 146.1 174.15
L 144.8 172.35
Q 144.75 172.3 144.7 172.3 144.6 172.25 144.55 172.3 144.5 172.35 144.45 172.45
M 116.45 164.8
Q 116.5 164.75 116.55 164.7 116.55 164.6 116.5 164.55 116.45 164.5 116.4 164.45 116.3 164.45 116.25 164.5
L 114.45 165.8
Q 114.4 165.85 114.35 165.95 114.35 166 114.4 166.05 114.45 166.1 114.55 166.15 114.6 166.15 114.65 166.1
L 116.45 164.8
M 116.4 143.95
L 114.4 142.9
Q 114.35 142.85 114.3 142.85 114.2 142.9 114.2 142.95 114.15 143 114.15 143.1 114.2 143.15 114.25 143.2
L 116.2 144.25
Q 116.25 144.3 116.35 144.3 116.4 144.25 116.45 144.2 116.5 144.15 116.45 144.05 116.45 144 116.4 143.95
M 154 142.7
Q 153.95 142.7 153.9 142.75
L 152.15 143.8
Q 152.05 143.85 152.05 143.95 152.05 144 152.1 144.05 152.15 144.15 152.2 144.15 152.25 144.15 152.35 144.15
L 154.1 143.05
Q 154.15 143 154.15 142.9 154.15 142.85 154.15 142.8 154.1 142.7 154 142.7
M 145.8 134.85
Q 145.85 134.8 145.85 134.75 145.8 134.65 145.75 134.65 145.65 134.6 145.6 134.6 145.55 134.6 145.5 134.7
L 144.4 136.5
Q 144.35 136.55 144.4 136.65 144.4 136.7 144.5 136.75 144.55 136.8 144.6 136.75 144.7 136.75 144.75 136.7
L 145.8 134.85
M 134.05 143.1
Q 129.3 143.1 125.9 146.45 122.55 149.85 122.55 154.6 122.55 159.4 125.9 162.75 127.05 163.9 128.3 164.65
L 128.35 164.65
Q 130.9 166.15 134.05 166.15 138.85 166.15 142.2 162.75 145.6 159.4 145.6 154.6 145.6 149.85 142.2 146.45 138.85 143.1 134.05 143.1
M 126.15 146.7
Q 129.45 143.45 134.05 143.45 138.7 143.45 141.95 146.7 145.2 150 145.2 154.6 145.2 159.25 141.95 162.5 138.7 165.75 134.05 165.75 131 165.75 128.6 164.4 127.75 162.05 129.3 160
L 129.3 160.05
Q 130.6 158.5 135 161.4 136.5 162.05 137.35 161.9 138.25 161.7 138.5 160.7 138.75 159.65 138 159.2 137.35 158.8 135.8 158.9 135.05 158.95 134.7 158.6 134.45 158.25 134.45 157.65
L 135.65 157.65
Q 136.1 157.6 136.3 157.5
L 136.6 157.35 136.85 157.15
Q 137.1 156.95 137.3 156.65 137.45 156.45 137.6 156.1 137.6 156.05 137.75 155.5
L 137.85 154.6 137.75 150.4 137.85 150.05 138.15 149.75
Q 138.3 149.7 138.25 149.5 138.2 149.4 138.05 149.45 137.9 149.5 137.75 149.6 137.65 149.7 137.55 149.85 137.45 149.95 137.4 150.15
L 137.35 150.3 137.35 150.35 137.3 150.4 137.15 154.45 137.1 154.55 137.1 154.85 136.85 155.8
Q 136.8 156.05 136.65 156.25 136.5 156.45 136.35 156.55
L 136.2 156.65 136.15 156.7 136 156.75
Q 135.8 156.85 135.55 156.85
L 132.65 156.85 132.65 156.8 132.55 156.8 132.4 156.7 132.35 156.7 132.35 156.65 132.3 156.65 132.3 156.6 132.15 156.5 132.15 156.45 132.1 156.4 132.1 156.35 132.05 156.3 131.75 155.65 131.55 154.9 131.5 154.45 131.4 150.35 131.35 150.3 131.35 150.15 131.3 150.1 131.3 150.05 131.25 149.95 131.15 149.9 131.15 149.8 131.1 149.75 131.05 149.75 131 149.7 130.95 149.7 130.75 149.6
Q 130.6 149.55 130.5 149.7 130.45 149.9 130.6 149.95
L 130.7 150 130.85 150.15 130.85 150.25 130.9 150.25 130.9 150.65 130.85 150.8 130.75 154.55 130.95 155.75 131.1 156.2 131.35 156.7 131.45 156.85 131.5 156.9 131.5 156.95 131.65 157.15 131.7 157.2 131.75 157.2 131.8 157.3 131.85 157.3 131.85 157.35 132.1 157.5 132.25 157.55 132.35 157.6 132.45 157.6 132.45 157.65 132.7 157.65
Q 132.85 157.7 133 157.65
L 134.1 157.65
Q 134.1 158.45 134.4 158.85 134.85 159.35 135.85 159.25 137.25 159.15 137.8 159.5 138.35 159.85 138.15 160.6 137.95 161.4 137.25 161.5 136.5 161.65 135.2 161.05 130.45 157.95 129 159.8 127.45 161.8 128.1 164.1 127.1 163.4 126.15 162.5 122.9 159.25 122.9 154.6 122.9 150 126.15 146.7
M 122.95 134.55
Q 122.9 134.45 122.85 134.45 122.8 134.45 122.7 134.5 122.65 134.55 122.65 134.6 122.6 134.65 122.65 134.7
L 123.9 136.75
Q 123.9 136.8 124 136.85 124.05 136.85 124.1 136.8 124.2 136.75 124.2 136.7 124.2 136.65 124.2 136.55
L 122.95 134.55 Z"/>

<path fill="#7A241C" stroke="none" d="
M 154.55 134.35
Q 146.1 125.85 134.15 125.85 122.2 125.85 113.7 134.35 105.3 142.9 105.3 155 105.3 167 113.7 175.55 122.2 184.1 134.15 184.1 146.1 184.1 154.55 175.55 163 167 163 155 163 142.9 154.55 134.35
M 134.15 129.7
Q 144.4 129.7 151.7 137.05 158.95 144.4 158.95 154.75 158.95 165.1 151.7 172.4 144.4 179.75 134.15 179.75 123.9 179.75 116.6 172.4 109.35 165.1 109.35 154.75 109.35 144.4 116.6 137.05 123.9 129.7 134.15 129.7 Z"/>
</g>

<g id="Layer0_0_MEMBER_0_MEMBER_0_MEMBER_0_MEMBER_0_MEMBER_0_MEMBER_31_MEMBER_0_MEMBER_1_FILL">
<path fill="#BD0000" stroke="none" d="
M 131.55 166.9
L 131.2 166.7 130.9 166.6
Q 130.7 166.55 130.5 166.55
L 129.8 166.75
Q 129.7 166.8 129.55 166.95
L 129.4 167.1
Q 129.35 167.2 129.4 167.3 129.45 167.35 129.5 167.35 129.55 167.35 129.6 167.3
L 129.75 167.15
Q 129.9 167 130.2 166.95 130.55 166.8 130.75 166.85 130.8 166.85 131.1 166.95
L 131.2 167 131.35 167.1 131.4 167.2
Q 131.45 167.25 131.45 167.35 131.5 167.55 131.45 167.75
L 131.45 167.8
Q 130.5 167.8 129.5 167.8
L 129.5 167.85 129.4 167.85 129.4 168.05 129.45 168.05 129.45 168.1 129.5 168.1
Q 130.1 168.1 130.65 168.1
L 130.65 169.25 130.7 169.25 130.7 169.35 130.75 169.35
Q 130.75 169.4 130.8 169.4 130.85 169.45 130.95 169.45 131.35 169.45 131.7 169.2
L 131.65 169.55
Q 131.6 169.75 131.55 169.85 131.4 170 131.25 170 131.15 170.05 130.9 170.05 130.6 170.05 130.45 170
L 130.05 169.7
Q 129.85 169.55 129.75 169.35 129.75 169.25 129.7 169.2 129.65 169.1 129.6 169.1 129.55 169.1 129.45 169.15 129.4 169.25 129.45 169.3
L 129.5 169.45 129.65 169.7
Q 129.85 169.95 130.2 170.15
L 130.55 170.3 130.9 170.35
Q 131.15 170.35 131.35 170.3 131.65 170.2 131.75 170.05
L 131.85 169.9 131.9 169.8
Q 131.95 169.5 131.95 169.05 131.95 168.85 131.85 168.8
L 131.75 168.7
Q 131.7 168.7 131.65 168.8
L 131.6 168.9 131.5 168.95
Q 131.45 169 131.35 169.05 131.15 169.15 131 169.15
L 130.95 169.15 130.95 168.1
Q 131.95 168.1 132.9 168.1 132.75 168.25 132.7 168.4 132.6 168.6 132.6 168.95 132.55 169.4 132.6 169.9 132.6 170.1 132.65 170.2 132.65 170.25 132.85 170.45
L 133.2 170.8
Q 133.35 170.85 133.4 170.9 133.45 170.95 133.55 170.8 133.6 170.75 133.55 170.75 133.55 170.65 133.45 170.6 133.35 170.55 133.2 170.35 133.05 170.2 133 170.2 132.9 170.1 132.9 170.05 132.85 170 132.85 169.9
L 132.85 168.8
Q 132.9 168.6 133 168.5
L 133 168.45
Q 133.1 168.3 133.25 168.2 133.3 168.15 133.35 168.1 134.05 168.1 134.8 168.1 134.75 168.15 134.75 168.2
L 134.75 168.65 134.45 168.6 134.4 168.6
Q 134.3 168.6 134.25 168.6
L 134.2 168.6
Q 134.05 168.65 133.95 168.75
L 133.95 168.8 133.9 168.9 133.9 169 133.85 169 133.85 169.7
Q 133.95 169.65 133.9 169.75
L 134.05 169.75
Q 134.1 169.75 134.15 169.65
L 134.15 169 134.2 168.95 134.2 168.9 134.3 168.9 134.75 168.95 134.75 169.35 134.8 169.4 134.8 169.45 134.85 169.45 134.9 169.55 134.95 169.55 134.8 169.6 134.7 169.65
Q 134.65 169.7 134.6 169.75 134.6 169.8 134.55 169.9
L 134.55 170.7 134.7 170.8 135.05 170.8
Q 135.15 170.75 135.15 170.7
L 135.2 170.65 135.2 170.6 135.1 170.55
Q 135.1 170.5 134.8 170.5
L 134.8 170.25 134.85 170.15 134.85 169.95 134.9 169.9
Q 135.1 169.8 135.15 169.8
L 135.35 169.75 135.4 169.8
Q 135.45 169.8 135.4 169.85
L 135.45 169.85 135.45 170.05 135.55 170.15
Q 135.6 170.15 135.75 170.15
L 136.05 170.15 136.05 170.75
Q 136.05 170.8 136.1 170.8
L 136.25 170.8
Q 136.3 170.8 136.3 170.75
L 136.3 168.1
Q 136.6 168.1 136.85 168.1 136.85 168.15 136.9 168.15 136.9 168.2 137.05 168.2 137.3 168.25 137.5 168.4
L 137.75 168.6
Q 137.85 168.8 137.7 169.05
L 137.15 169.5
Q 137.05 169.55 137.05 169.6 137.05 169.65 137.1 169.75
L 137.25 169.85
Q 137.45 170.1 137.85 170.15 138 170.15 138.55 170.15 138.5 170.35 138.6 170.4 138.65 170.5 138.8 170.5
L 139 170.45
Q 139.15 170.45 139.25 170.35 139.3 170.3 139.2 170.2
L 139.2 168.1 139.25 168.1 139.25 168.05 139.3 168.05 139.3 167.85 139.2 167.85 139.2 167.8 138.95 167.8
Q 135.35 167.8 131.75 167.8
L 131.75 167.75 131.7 167.2 131.65 167 131.55 166.9
M 136 168.1
L 136 168.15 136.05 168.15 136.05 169.9 135.75 169.9 135.7 169.85 135.7 169.75 135.65 169.75
Q 135.698828125 169.748828125 135.65 169.7 135.65 169.65 135.6 169.6
L 135.55 169.55 135.55 169.5 135.45 169.5 135.3 169.4 135.3 169.45
Q 135.298828125 169.401171875 135.25 169.45
L 135.05 169.25
Q 135 169.15 135 169.1
L 135.05 169.1
Q 135 168.95 135.05 168.8
L 135.05 168.1
Q 135.55 168.1 136 168.1
M 137.75 168.2
Q 137.7 168.15 137.6 168.1 138.25 168.1 138.9 168.1
L 138.9 169.2 138.8 169.2 138.7 169.15 138.45 169.1 138.4 169.1 138.35 169.05 138.15 168.9 138.1 168.9 138.1 168.75 138 168.45 137.75 168.2
M 137.5 169.55
L 137.9 169.25
Q 137.95 169.2 137.95 169.15
L 138.2 169.3
Q 138.4 169.4 138.55 169.45
L 138.9 169.5 138.9 170.2 138.8 170.2
Q 138.85 170 138.75 169.95 138.7 169.9 138.55 169.9
L 138.05 169.9
Q 137.7 169.85 137.4 169.65 137.45 169.65 137.5 169.55 Z"/>
</g>

<g id="Layer0_0_MEMBER_0_MEMBER_0_MEMBER_0_MEMBER_0_MEMBER_0_MEMBER_31_MEMBER_0_MEMBER_2_STROKES_1_FILL">
<path fill="#000000" stroke="none" d="
M 139.45 135.35
Q 139.35 135.25 139.35 135.4
L 134.3 153.35 133.35 157.9 133.3 158.5 133.15 159.25 133.15 159.55
Q 133.05 159.65 133.2 159.65
L 133.3 159.6 133.55 159 135.15 154.1 139.5 135.45
Q 139.6 135.35 139.45 135.35 Z"/>
</g>

<g id="Layer0_0_MEMBER_0_MEMBER_0_MEMBER_0_MEMBER_0_MEMBER_0_MEMBER_31_MEMBER_0_MEMBER_2_MEMBER_0_STROKES_1_FILL">
<path fill="#000000" stroke="none" d="
M 148.15 154.6
L 148.05 154.45 137.75 153.25 137.35 153.15 135.7 153 135.15 153 134.95 153.05 134.55 153.05 134.2 153.15 132.85 153.4 132.7 153.4 131.2 153.9 131.15 153.9 131.1 153.95 130.05 154.45
Q 129.85 154.55 129.95 154.7
L 130.05 154.8 131.1 155.3 131.15 155.35 131.2 155.35 132.7 155.85 132.85 155.85 134.2 156.1 134.55 156.2 134.95 156.2 135.15 156.25 135.35 156.25 137.35 156.1 137.75 156 148.05 154.8 148.15 154.6 Z"/>
</g>

<g id="Layer0_0_MEMBER_0_MEMBER_0_MEMBER_0_MEMBER_0_MEMBER_0_MEMBER_31_MEMBER_0_MEMBER_2_MEMBER_0_MEMBER_0_FILL">
<path fill="#0099CC" stroke="none" d="
M 135.1 155.2
Q 135.4 154.9 135.4 154.5 135.4 154.1 135.1 153.8 134.8 153.5 134.4 153.5 134 153.5 133.7 153.8 133.4 154.1 133.4 154.5 133.4 154.9 133.7 155.2 134 155.5 134.4 155.5 134.8 155.5 135.1 155.2 Z"/>
</g>

<path id="Layer0_0_MEMBER_0_MEMBER_0_MEMBER_0_MEMBER_0_MEMBER_0_MEMBER_31_1_STROKES" stroke="#BD0000" stroke-width="1" stroke-linejoin="round" stroke-linecap="round" fill="none" d="
M 160.55 153.95
Q 160.55 164.9 152.8 172.65 145 180.45 134.05 180.45 123.05 180.45 115.3 172.65 107.55 164.9 107.55 153.95 107.55 142.95 115.3 135.2 123.05 127.4 134.05 127.4 145 127.4 152.8 135.2 160.55 142.95 160.55 153.95 Z"/>
</defs>

<g transform="matrix( 1, 0, 0, 1, -0.25,-5.85) ">
<use xlink:href="#Layer0_0_MEMBER_0_MEMBER_0_MEMBER_0_MEMBER_0_MEMBER_0_MEMBER_0_FILL"/>
</g>

<g transform="matrix( 1, 0, 0, 1, -0.25,-5.85) ">
<use xlink:href="#Layer0_0_MEMBER_0_MEMBER_0_MEMBER_0_MEMBER_0_MEMBER_0_MEMBER_1_FILL"/>
</g>

<g transform="matrix( 1, 0, 0, 1, -0.25,-5.85) ">
<use xlink:href="#Layer0_0_MEMBER_0_MEMBER_0_MEMBER_0_MEMBER_0_MEMBER_0_MEMBER_2_FILL"/>
</g>

<g transform="matrix( 1, 0, 0, 1, -0.25,-5.85) ">
<use xlink:href="#Layer0_0_MEMBER_0_MEMBER_0_MEMBER_0_MEMBER_0_MEMBER_0_MEMBER_3_FILL"/>
</g>

<g transform="matrix( 1, 0, 0, 1, -0.25,-5.85) ">
<use xlink:href="#Layer0_0_MEMBER_0_MEMBER_0_MEMBER_0_MEMBER_0_MEMBER_0_MEMBER_4_FILL"/>
</g>

<g transform="matrix( 1, 0, 0, 1, -0.25,-5.85) ">
<use xlink:href="#Layer0_0_MEMBER_0_MEMBER_0_MEMBER_0_MEMBER_0_MEMBER_0_MEMBER_5_FILL"/>
</g>

<g transform="matrix( 1, 0, 0, 1, -0.25,-5.85) ">
<use xlink:href="#Layer0_0_MEMBER_0_MEMBER_0_MEMBER_0_MEMBER_0_MEMBER_0_MEMBER_6_FILL"/>
</g>

<g transform="matrix( 1, 0, 0, 1, -0.25,-5.85) ">
<use xlink:href="#Layer0_0_MEMBER_0_MEMBER_0_MEMBER_0_MEMBER_0_MEMBER_0_MEMBER_7_FILL"/>
</g>

<g transform="matrix( 1, 0, 0, 1, -0.25,-5.85) ">
<use xlink:href="#Layer0_0_MEMBER_0_MEMBER_0_MEMBER_0_MEMBER_0_MEMBER_0_MEMBER_8_FILL"/>
</g>

<g transform="matrix( 1, 0, 0, 1, -0.25,-5.85) ">
<use xlink:href="#Layer0_0_MEMBER_0_MEMBER_0_MEMBER_0_MEMBER_0_MEMBER_0_MEMBER_9_FILL"/>
</g>

<g transform="matrix( 1, 0, 0, 1, 0,-85.2) ">
<use xlink:href="#Layer0_0_MEMBER_0_MEMBER_0_MEMBER_0_MEMBER_0_MEMBER_0_MEMBER_10_FILL"/>
</g>

<g transform="matrix( 1, 0, 0, 1, -0.25,-5.85) ">
<use xlink:href="#Layer0_0_MEMBER_0_MEMBER_0_MEMBER_0_MEMBER_0_MEMBER_0_MEMBER_11_FILL"/>
</g>

<g transform="matrix( 1, 0, 0, 1, -0.25,-5.85) ">
<use xlink:href="#Layer0_0_MEMBER_0_MEMBER_0_MEMBER_0_MEMBER_0_MEMBER_0_MEMBER_12_FILL"/>
</g>

<g transform="matrix( 1, 0, 0, 1, -0.25,-5.85) ">
<use xlink:href="#Layer0_0_MEMBER_0_MEMBER_0_MEMBER_0_MEMBER_0_MEMBER_0_MEMBER_13_FILL"/>
</g>

<g transform="matrix( 1, 0, 0, 1, -0.25,-5.85) ">
<use xlink:href="#Layer0_0_MEMBER_0_MEMBER_0_MEMBER_0_MEMBER_0_MEMBER_0_MEMBER_14_FILL"/>
</g>

<g transform="matrix( 1, 0, 0, 1, -0.25,-5.85) ">
<use xlink:href="#Layer0_0_MEMBER_0_MEMBER_0_MEMBER_0_MEMBER_0_MEMBER_0_MEMBER_15_FILL"/>
</g>

<g transform="matrix( 1, 0, 0, 1, -0.25,-5.85) ">
<use xlink:href="#Layer0_0_MEMBER_0_MEMBER_0_MEMBER_0_MEMBER_0_MEMBER_0_MEMBER_16_FILL"/>
</g>

<g transform="matrix( 1, 0, 0, 1, -0.25,-5.85) ">
<use xlink:href="#Layer0_0_MEMBER_0_MEMBER_0_MEMBER_0_MEMBER_0_MEMBER_0_MEMBER_17_FILL"/>
</g>

<g transform="matrix( 1, 0, 0, 1, -0.25,-5.85) ">
<use xlink:href="#Layer0_0_MEMBER_0_MEMBER_0_MEMBER_0_MEMBER_0_MEMBER_0_MEMBER_18_FILL"/>
</g>

<g transform="matrix( 1, 0, 0, 1, -0.25,-5.85) ">
<use xlink:href="#Layer0_0_MEMBER_0_MEMBER_0_MEMBER_0_MEMBER_0_MEMBER_0_MEMBER_19_FILL"/>
</g>

<g transform="matrix( 1, 0, 0, 1, -0.25,-5.85) ">
<use xlink:href="#Layer0_0_MEMBER_0_MEMBER_0_MEMBER_0_MEMBER_0_MEMBER_0_MEMBER_20_FILL"/>
</g>

<g transform="matrix( 1, 0, 0, 1, -0.25,-5.85) ">
<use xlink:href="#Layer0_0_MEMBER_0_MEMBER_0_MEMBER_0_MEMBER_0_MEMBER_0_MEMBER_21_FILL"/>
</g>

<g transform="matrix( 1, 0, 0, 1, -0.25,-5.85) ">
<use xlink:href="#Layer0_0_MEMBER_0_MEMBER_0_MEMBER_0_MEMBER_0_MEMBER_0_MEMBER_22_FILL"/>
</g>

<g transform="matrix( 1, 0, 0, 1, -0.25,-5.85) ">
<use xlink:href="#Layer0_0_MEMBER_0_MEMBER_0_MEMBER_0_MEMBER_0_MEMBER_0_MEMBER_23_FILL"/>
</g>

<g transform="matrix( 1, 0, 0, 1, -0.25,-5.85) ">
<use xlink:href="#Layer0_0_MEMBER_0_MEMBER_0_MEMBER_0_MEMBER_0_MEMBER_0_MEMBER_24_FILL"/>
</g>

<g transform="matrix( 1, 0, 0, 1, -0.25,-5.85) ">
<use xlink:href="#Layer0_0_MEMBER_0_MEMBER_0_MEMBER_0_MEMBER_0_MEMBER_0_MEMBER_25_FILL"/>
</g>

<g transform="matrix( 1, 0, 0, 1, -0.25,-5.85) ">
<use xlink:href="#Layer0_0_MEMBER_0_MEMBER_0_MEMBER_0_MEMBER_0_MEMBER_0_MEMBER_26_FILL"/>
</g>

<g transform="matrix( 1, 0, 0, 1, -0.25,-5.85) ">
<use xlink:href="#Layer0_0_MEMBER_0_MEMBER_0_MEMBER_0_MEMBER_0_MEMBER_0_MEMBER_27_FILL"/>
</g>

<g transform="matrix( 1, 0, 0, 1, -0.25,-5.85) ">
<use xlink:href="#Layer0_0_MEMBER_0_MEMBER_0_MEMBER_0_MEMBER_0_MEMBER_0_MEMBER_28_FILL"/>
</g>

<g transform="matrix( 1, 0, 0, 1, -0.25,-5.85) ">
<use xlink:href="#Layer0_0_MEMBER_0_MEMBER_0_MEMBER_0_MEMBER_0_MEMBER_0_MEMBER_29_FILL"/>
</g>

<g transform="matrix( 1, 0, 0, 1, 0,0) ">
<use xlink:href="#Layer0_0_MEMBER_0_MEMBER_0_MEMBER_0_MEMBER_0_MEMBER_0_MEMBER_30_FILL"/>
</g>

<g transform="matrix( 1, 0, 0, 1, 0,0) ">
<use xlink:href="#Layer0_0_MEMBER_0_MEMBER_0_MEMBER_0_MEMBER_0_MEMBER_0_MEMBER_30_MEMBER_0_FILL"/>
</g>

<g transform="matrix( 1, 0, 0, 1, 0,-85.2) ">
<use xlink:href="#Layer0_0_MEMBER_0_MEMBER_0_MEMBER_0_MEMBER_0_MEMBER_0_MEMBER_31_FILL"/>

<use xlink:href="#Layer0_0_MEMBER_0_MEMBER_0_MEMBER_0_MEMBER_0_MEMBER_0_MEMBER_31_1_STROKES"/>
</g>

<g transform="matrix( 1, 0, 0, 1, 0,-85.2) ">
<use xlink:href="#Layer0_0_MEMBER_0_MEMBER_0_MEMBER_0_MEMBER_0_MEMBER_0_MEMBER_31_MEMBER_0_FILL"/>
</g>

<g transform="matrix( 1, 0, 0, 1, 0,-85.2) ">
<use xlink:href="#Layer0_0_MEMBER_0_MEMBER_0_MEMBER_0_MEMBER_0_MEMBER_0_MEMBER_31_MEMBER_0_MEMBER_0_FILL"/>
</g>

<g transform="matrix( 1, 0, 0, 1, 0,-85.2) ">
<use xlink:href="#Layer0_0_MEMBER_0_MEMBER_0_MEMBER_0_MEMBER_0_MEMBER_0_MEMBER_31_MEMBER_0_MEMBER_1_FILL"/>
</g>

<g transform="matrix( 1, 0, 0, 1, 0,-85.2) ">
<use xlink:href="#Layer0_0_MEMBER_0_MEMBER_0_MEMBER_0_MEMBER_0_MEMBER_0_MEMBER_31_MEMBER_0_MEMBER_2_STROKES_1_FILL"/>
</g>

<g transform="matrix( 1, 0, 0, 1, 0,-85.2) ">
<use xlink:href="#Layer0_0_MEMBER_0_MEMBER_0_MEMBER_0_MEMBER_0_MEMBER_0_MEMBER_31_MEMBER_0_MEMBER_2_MEMBER_0_STROKES_1_FILL"/>
</g>

<g transform="matrix( 1, 0, 0, 1, 0,-85.2) ">
<use xlink:href="#Layer0_0_MEMBER_0_MEMBER_0_MEMBER_0_MEMBER_0_MEMBER_0_MEMBER_31_MEMBER_0_MEMBER_2_MEMBER_0_MEMBER_0_FILL"/>
</g>
</svg>
