
<svg xmlns="http://www.w3.org/2000/svg" version="1.1" xmlns:xlink="http://www.w3.org/1999/xlink" preserveAspectRatio="none" x="0px" y="0px" width="550px" height="400px" viewBox="0 0 550 400">
<defs>
<g id="Layer0_0_MEMBER_0_MEMBER_0_MEMBER_0_FILL">
<path fill="#0382AD" stroke="none" d="
M 120.9 168.5
Q 116.5 169.65 112.65 169.9 108 170.2 101 168.5
L 100.9 174.25 104.75 174.9
Q 107.55 175.25 111.15 175.25 114.35 175.25 116.05 174.9 118.15 174.5 121.15 174.5 120.9 172.6 120.9 168.5
M 136.35 125.75
Q 134.55 124.95 133.1 124.1 136.35 140.4 137.3 155.35 137.6 160.2 143.35 225.95
L 146.85 265.65 150.6 265.25 141.8 158.9
Q 140.2 139.8 136.85 125.95
L 136.35 125.75
M 149.35 107.5
L 147.65 105.95
Q 146.7 110.95 144.85 114.6 142.35 119.55 136.6 125.5
L 136.85 125.95
Q 138.7 127.1 148.9 134.9
L 149.05 134.6
Q 151.2 128.7 151.85 124.6 152.55 120.55 152.9 109.45 150.8 108.6 149.35 107.5
M 130.6 122.5
Q 128.85 121.3 127.65 120.1 124.45 117.1 115.8 105.1 113.85 107.65 110.55 109.75 115.75 125.75 119.15 130.85 120.9 133.35 125.3 137 129.4 130.25 130.6 122.5
M 60.75 164.15
Q 77.05 175.35 78.15 176 81.65 178.1 84.3 178.75 85.6 176.3 86.55 174
L 87.8 174
Q 88.95 174.75 89.55 174.75 90 174.75 90.4 174.35 91.25 173.25 91.75 169.4 92.05 164.15 96.15 144.35 96.3 140.85 96.15 132.5 96 124.1 87.8 118.6
L 86.05 119.25
Q 77.9 122.2 70.05 140.9 66.25 149.85 60.75 164.15
M 189.35 118.25
Q 185.05 110.7 172.85 110.7
L 169.6 110.95
Q 174.1 150.25 175.6 169.4
L 178.25 169.5
Q 186.45 169.5 197.85 166.5 196.3 153.7 195.1 142.4
L 195 141.85
Q 192.3 123.25 189.35 118.25 Z"/>
</g>

<g id="Layer0_0_MEMBER_0_MEMBER_0_MEMBER_1_FILL">
<path fill="#0099CC" stroke="none" d="
M 169.6 110.95
L 165.05 111.2
Q 157.7 111.2 152.9 109.45 152.55 120.55 151.85 124.6 151.2 128.7 149.05 134.6
L 148.9 134.9
Q 138.7 127.1 136.85 125.95 140.2 139.8 141.8 158.9
L 150.6 265.25
Q 157.75 264.5 164.25 263 174.5 260.7 181.6 257.25
L 181.25 250.2
Q 181.1 248.55 181.1 246.7
L 180.35 233.9
Q 180.2 229.95 179.75 225.95
L 179.65 225.2
Q 179.15 221 178.6 212.15 177.95 203.4 177.55 200.75 177.35 200.35 177.35 200 176.95 184.85 175.6 169.4 174.1 150.25 169.6 110.95
M 136.6 125.5
Q 136.5 125.7 136.35 125.75
L 136.85 125.95 136.6 125.5
M 133.1 124.1
L 130.6 122.5
Q 129.4 130.25 125.3 137 120.9 133.35 119.15 130.85 115.75 125.75 110.55 109.75
L 108.9 110.7
Q 105.1 112.7 98.55 115
L 87.8 118.6
Q 96 124.1 96.15 132.5 96.3 140.85 96.15 144.35 92.05 164.15 91.75 169.4 91.25 173.25 90.4 174.35 92.75 191.5 93.9 215.9
L 94.5 225.95
Q 95.5 246.15 96.55 258.5 120.55 266.15 133.35 266.15 140.65 266.15 146.85 265.65
L 143.35 225.95
Q 137.6 160.2 137.3 155.35 136.35 140.4 133.1 124.1
M 112.65 169.9
Q 116.5 169.65 120.9 168.5 120.9 172.6 121.15 174.5 118.15 174.5 116.05 174.9 114.35 175.25 111.15 175.25 107.55 175.25 104.75 174.9
L 100.9 174.25 101 168.5
Q 108 170.2 112.65 169.9 Z"/>
</g>

<g id="Layer0_0_MEMBER_0_MEMBER_0_MEMBER_2_FILL">
<path fill="#EC9052" stroke="none" d="
M 198.35 254.35
Q 197 255.6 194.8 255.6 192.85 255.6 191.8 253.15
L 191.4 252.15 187 252.4
Q 184 252.55 181.35 252.25
L 182.35 267.75 206.5 267.75 206.35 265.4
Q 206.35 264.85 207.25 264.15 208 263.45 210.1 262.65 210.9 262.4 211.4 262.05
L 211.3 267.75 230.9 267.75 230.85 261.8
Q 231.65 262.6 233.1 263.05 234.4 263.55 235.55 263.55 238.15 263.5 238.15 262.15 238.15 260.6 233.85 257.65 229.5 254.7 229.6 251.95
L 229.6 250.9
Q 227.7 251.9 225 252.6 220.25 253.75 216.05 253.75 214.05 253.75 212.1 253.4
L 212.1 255.9 211.15 255.65
Q 208.75 255.65 207.25 255.5 206.9 255.45 206.15 255.25
L 205.65 250.35 203.8 250.9
Q 202.3 251.35 199.6 251.9 199.4 253.4 198.35 254.35
M 199 176.35
L 197.85 166.5
Q 186.45 169.5 178.25 169.5
L 175.6 169.4
Q 176.95 184.85 177.35 200 177.35 200.35 177.55 200.75 177.95 203.4 178.6 212.15 179.15 221 179.65 225.2
L 179.75 225.95
Q 180.2 229.95 180.35 233.9
L 181.1 246.7
Q 181.1 248.55 181.25 250.2 183.95 250.75 185.35 250.65 186.3 250.65 187.75 250.25 188.4 250.25 190 249.95
L 191.15 249.85
Q 191.05 249.2 191.05 247.95 191.05 246.05 192.35 244.95 193.3 244.15 194.35 244.15 196.55 244.15 198.1 246 199.3 247.45 199.6 249.35
L 205.5 248.15
Q 204.85 243.1 204 234.25
L 203.1 225.95
Q 202.1 215.65 202.1 212.65
L 202.1 212.15
Q 201.3 197 199 176.35
M 337.6 244.35
Q 334.45 245.15 330.85 245.65 323.55 246.65 315.6 246.65
L 316.95 267.75 340.6 267.75
Q 339.1 255.25 337.6 244.35
M 363.1 175.35
L 363.1 178.25 365.35 197.95
Q 366.05 202.75 366.75 214.75 367.35 227.35 367.95 233.6 368.1 236.75 368.85 242
L 371.7 251.1 375 254.85
Q 378.7 258.15 383.5 258.15 385.45 258.15 387.7 255.15 388.55 254.05 389.1 252.5 389.25 247.8 389.25 241.85 391.45 241.2 393.35 240.65 396.85 239.1 396.85 236.6 396.85 236.05 396.1 235.15 395.2 234.15 394.6 234.15
L 389.85 235.15
Q 386.95 181.7 387.25 174.95
L 387.35 173.7 387.1 173.85 383.5 174.4
Q 382 174.65 380.5 174.65
L 374.85 174.7
Q 374.55 174.75 374 174.75 372.8 174.85 370.35 174.95
L 363.1 175.35
M 33.05 122.5
Q 31.45 115.5 30.35 113.95 27.9 109.7 22 109.7 15.1 109.7 11.85 115.2 9.1 120.1 9.1 128.15 9.1 131.3 14.75 150.65 15.95 154.85 21.1 172.1
L 21.25 172.6
Q 22.75 175.75 27.7 187.75 31.65 197.5 34.4 202.75 42.5 218.5 49.45 219.25 56.2 220.05 59.55 218.1 62.8 216.05 64.15 214.45 78.4 190.95 84.3 178.75 81.65 178.1 78.15 176 77.05 175.35 60.75 164.15
L 54.75 180.1
Q 50.3 170.5 48 163.9 45.2 155.75 36.15 130.6
L 37.4 128.75
Q 40.4 124.5 40.4 122.45 40.4 121.15 39.9 120 39.15 118.5 37.65 118.5 37.35 118.5 35.55 120.2 34.2 121.35 33.05 122.5
M 118.65 95.45
L 118.65 96.45
Q 118.65 101.35 115.8 105.1 124.45 117.1 127.65 120.1 128.85 121.3 130.6 122.5
L 133.1 124.1
Q 134.55 124.95 136.35 125.75 136.5 125.7 136.6 125.5 142.35 119.55 144.85 114.6 146.7 110.95 147.65 105.95 144.55 102.25 143.15 95.7 137.85 97.1 132.6 97.1 124 97.05 118.65 95.45 Z"/>
</g>

<g id="Layer0_0_MEMBER_0_MEMBER_0_MEMBER_3_FILL">
<path fill="#F99E60" stroke="none" d="
M 140.6 32.2
Q 136.3 34.25 132.65 35 129.45 35.75 124.9 35.75 119 35.75 116 35 111.75 33.75 108.05 30.5
L 108.15 31.9
Q 108.25 32.7 108.25 34.75 108.25 41.1 106.4 45.25 105.2 47.65 102.65 50.75
L 105.8 70.35
Q 107.25 80 107.5 83.7 107.95 90.95 116.15 94.5 117 94.95 118.65 95.45 124 97.05 132.6 97.1 137.85 97.1 143.15 95.7 148.15 94.2 152.85 91.25 161.4 86.15 161.15 67.75
L 161.05 63.05
Q 160.85 62.2 160.85 61
L 160.4 56.05
Q 159.1 43.7 155.75 32.5
L 155.35 32.5 149.8 33.75 140.6 32.2
M 135.15 46.5
Q 136.6 45.7 139.75 45.25 142.25 45.05 147.25 45.05 151.85 45.05 153.85 47.2 156.4 49.55 156.4 55.7 156.4 58.6 151.85 60.75 147.7 62.75 142.65 62.75 138.75 62.75 136.9 57.85 135.55 54.35 135.15 46.5
M 119.05 73.35
Q 118.9 73.05 118.9 72.85 120.9 71.5 122.65 71.2 123.1 71.1 125.55 71.1 128.25 71.1 128.55 71.2 129.8 71.45 129.65 72.6 128.35 73.55 125.4 73.6
L 120.5 73.6
Q 119.45 73.6 119.05 73.35
M 142.4 70.25
Q 143.25 70.25 144.1 71.1 143.95 71.45 140.4 72.25 136.95 73.1 135.1 73.1 134.3 73.1 133.75 72.6 133.15 72.1 133.15 71.7
L 133.35 71.45 137.35 70.85
Q 141.05 70.25 142.4 70.25
M 131.9 54.95
Q 132.4 56.7 133.6 59.6 134.75 63.05 134.75 65.75 134.75 69.1 131.9 69.1 130.7 69.1 130.15 68.5 129.65 67.85 129.65 65.85 129.65 64.25 130.15 62.6 130.9 60.3 131.9 54.95
M 136.55 74.1
L 138 74.1 138.1 74.7
Q 138.3 75.05 136.75 76.35
L 134.4 78.2
Q 133.7 78.6 132.6 78.7 131.5 78.85 130 78.1 128.45 77.3 127 75
L 127.65 74.95
Q 128 74.95 129.35 75.95 130.85 76.85 132 76.85 133.8 76.85 136.55 74.1
M 109.5 60.75
Q 108.75 58.95 108.75 51.1 108.75 48.65 109.15 47.55 120.95 46.05 125.9 46.05 127.95 46.05 129.25 49.85 130.15 53 130.15 56.8 130.15 62.25 123.15 63.6 116.85 63.95 116.3 64
L 116.15 64
Q 110.85 63.85 109.5 60.75 Z"/>
</g>

<g id="Layer0_0_MEMBER_0_MEMBER_0_MEMBER_4_FILL">
<path fill="#8C3D34" stroke="none" d="
M 138 74.1
L 136.55 74.1
Q 133.8 76.85 132 76.85 130.85 76.85 129.35 75.95 128 74.95 127.65 74.95
L 127 75
Q 128.45 77.3 130 78.1 131.5 78.85 132.6 78.7 133.7 78.6 134.4 78.2
L 136.75 76.35
Q 138.3 75.05 138.1 74.7
L 138 74.1
M 254.35 95.45
Q 253.35 95.45 253.35 96.1
L 253.65 97.1 254.85 97.6
Q 256.35 98.2 257.85 98.2 259.35 98.2 262.1 97.7 265.25 96.95 265.25 95.95 265.25 95.65 265 95.25 264.7 94.95 264.45 94.95 263.6 94.95 262.1 95.5 260.55 96.1 259.2 96.1 257.85 96.1 256.6 95.85 255.45 95.45 254.35 95.45
M 408.85 93.95
Q 410.65 95.1 413.1 95.1 416.1 95.1 417.85 94.5 420.7 93.7 420.7 91.7 420.7 91.15 420.5 90.95 419.15 91.5 418.1 92.45 417.5 92.95 415.35 92.95 413.15 92.95 410.7 92.1
L 408.2 91.25
Q 407.9 91.25 407.35 91.7 407.1 92.05 407.1 92.35 407.55 93.15 408.85 93.95 Z"/>
</g>

<g id="Layer0_0_MEMBER_0_MEMBER_0_MEMBER_5_FILL">
<path fill="#CD5749" stroke="none" d="
M 134.75 65.75
Q 134.75 63.05 133.6 59.6 132.4 56.7 131.9 54.95 130.9 60.3 130.15 62.6 129.65 64.25 129.65 65.85 129.65 67.85 130.15 68.5 130.7 69.1 131.9 69.1 134.75 69.1 134.75 65.75
M 260.6 86.45
Q 261 85.9 261 84.6 261 82.55 259.45 79.35 258.05 76.7 257.75 75.7 255.45 80.9 255.75 83.85 255.75 85.85 256.75 86.6 257.45 87.1 259 87.1 260.25 87.1 260.6 86.45
M 415 82.1
Q 413.7 78.5 413.7 77.85 412.6 81.45 412 86.25 412 87.35 412.85 88.1 413.55 88.7 414.5 88.7 415.4 88.7 415.85 88.1 416.25 87.45 416.25 86.7 416.25 85.7 415 82.1 Z"/>
</g>

<g id="Layer0_0_MEMBER_0_MEMBER_0_MEMBER_6_FILL">
<path fill="#000000" stroke="none" d="
M 194.35 244.15
Q 193.3 244.15 192.35 244.95 191.05 246.05 191.05 247.95 191.05 249.2 191.15 249.85
L 190 249.95
Q 188.4 250.25 187.75 250.25 186.3 250.65 185.35 250.65 183.95 250.75 181.25 250.2
L 181.35 252.25
Q 184 252.55 187 252.4
L 191.4 252.15 191.8 253.15
Q 192.85 255.6 194.8 255.6 197 255.6 198.35 254.35 199.4 253.4 199.6 251.9 202.3 251.35 203.8 250.9
L 205.65 250.35 205.5 248.15 199.6 249.35
Q 199.3 247.45 198.1 246 196.55 244.15 194.35 244.15
M 277.25 260.3
Q 275.85 260.3 274.1 260.15 265.4 259.6 252.55 257.25 236.8 254.3 229.6 251.65
L 229.6 251.95
Q 229.5 254.7 233.85 257.65 238.15 260.6 238.15 262.15 238.15 263.5 235.55 263.55 234.4 263.55 233.1 263.05 231.65 262.6 230.85 261.8
L 230.9 267.75 316.95 267.75 315.85 250.75
Q 298.15 260.3 278.5 260.3
L 277.25 260.3
M 96.55 258.5
Q 96.65 259.55 96.05 267.75
L 182.35 267.75 181.6 257.25
Q 174.5 260.7 164.25 263 157.75 264.5 150.6 265.25
L 146.85 265.65
Q 140.65 266.15 133.35 266.15 120.55 266.15 96.55 258.5
M 392.6 107.7
Q 388.4 104.2 386.25 102.2 384.55 100.4 383.1 97.85 383.55 100.3 386.1 124
L 397.6 122.2
Q 399.65 121.85 401.95 121.2
L 402.75 121
Q 402.75 117.6 402.6 116.85
L 401.6 112.2 397.35 110.45
Q 394.65 109.4 392.6 107.7
M 124.9 51.8
Q 124.35 51.25 123.55 51.25 122.7 51.25 122.15 51.8 121.55 52.5 121.55 53.25 121.55 54.05 122.15 54.55 122.75 55.2 123.55 55.2 124.3 55.2 124.9 54.55 125.55 54 125.55 53.25 125.55 52.55 124.9 51.8
M 144.1 71.1
Q 143.25 70.25 142.4 70.25 141.05 70.25 137.35 70.85
L 133.35 71.45 133.15 71.7
Q 133.15 72.1 133.75 72.6 134.3 73.1 135.1 73.1 136.95 73.1 140.4 72.25 143.95 71.45 144.1 71.1
M 144.85 50.45
Q 144.05 50.45 143.35 51 142.85 51.65 142.85 52.5 142.85 53.4 143.35 53.95 144.05 54.55 144.85 54.55 145.7 54.55 146.35 53.95 146.9 53.4 146.9 52.5 146.9 51.6 146.35 51 145.65 50.45 144.85 50.45
M 118.9 72.85
Q 118.9 73.05 119.05 73.35 119.45 73.6 120.5 73.6
L 125.4 73.6
Q 128.35 73.55 129.65 72.6 129.8 71.45 128.55 71.2 128.25 71.1 125.55 71.1 123.1 71.1 122.65 71.2 120.9 71.5 118.9 72.85
M 152.75 23.4
Q 152.1 22.05 150.75 20.9 145.6 17.05 129.35 17.05 121.45 17.05 113.05 19.8 104 22.95 104 26.65 104 27.55 104.65 28.65 102.7 32.5 102.15 36.55 101.9 38.4 101.9 44.25 101.9 45.6 102.65 50.75 105.2 47.65 106.4 45.25 108.25 41.1 108.25 34.75 108.25 32.7 108.15 31.9
L 108.05 30.5
Q 111.75 33.75 116 35 119 35.75 124.9 35.75 129.45 35.75 132.65 35 136.3 34.25 140.6 32.2
L 149.8 33.75 155.35 32.5 155.75 32.5
Q 154.9 29.65 153.3 25.05
L 152.75 23.4
M 268.6 76.1
Q 268.6 76.9 269.2 77.5 269.75 78.1 270.7 78.1 271.65 78.1 272.1 77.5 272.75 76.9 272.75 76.1 272.75 75.2 272.1 74.6 271.6 74 270.7 74 269.8 74 269.2 74.6 268.6 75.2 268.6 76.1
M 248.65 76.45
Q 248.65 75.4 248 74.7 247.25 74.1 246.3 74.1 245.3 74.1 244.6 74.7 243.85 75.45 243.85 76.45 243.85 77.5 244.6 78.1 245.3 78.85 246.3 78.85 247.25 78.85 248 78.1 248.65 77.5 248.65 76.45
M 278.25 51.85
Q 281.95 64.6 282.35 67.2 282.75 69 283 72.45
L 283.75 70.7
Q 285.85 66.05 285.85 62.35 285.85 55.85 279.85 49.85
L 279.5 49.5
Q 273.05 43.3 260 43 246.95 42.55 240.1 48.25 233.2 53.95 232.25 59.7 230.95 65.9 230.5 67.35 230.25 69.25 230.25 69.85 230.15 70.75 230.15 73.7 232.45 67.2 237.6 63.8 242.65 60.5 252.35 59.25
L 268.2 57
Q 274.95 55.4 278.25 51.85
M 441.1 124.2
L 439.45 101.45
Q 436 104.9 431.35 107.95 427.65 110.15 425.1 111.35
L 425.45 122.1
Q 426.45 122.95 427.85 123.45 429.1 123.95 431.2 124.2
L 431.7 124.2
Q 434.5 124.3 441.1 124.2
M 405.95 75.85
Q 406.5 75.3 406.5 74.45 406.5 73.75 405.95 73.1 405.25 72.5 404.5 72.5 403.8 72.5 403.2 73.1 402.6 73.7 402.6 74.45 402.6 75.35 403.2 75.85 403.75 76.45 404.5 76.45 405.35 76.45 405.95 75.85
M 421.7 70.75
L 422.85 70.75
Q 422.5 69.8 421.1 68.6 419.4 66.95 417.75 66.95 417.15 66.95 416.25 67.2 416.85 68.05 418.2 68.85
L 421.7 70.75
M 421.5 72.6
Q 420.75 72.6 420.2 73.1 419.7 73.65 419.7 74.45 419.7 75.2 420.2 75.7 420.75 76.25 421.5 76.25 422.35 76.25 422.75 75.7 423.35 75.2 423.35 74.45 423.35 73.7 422.75 73.1 422.3 72.6 421.5 72.6
M 406.35 67.6
L 405.85 67.1
Q 405.8 66.95 405.2 66.95 404.55 66.95 402.6 68.1 400.4 69.4 399.25 70.35 399.5 71.2 400 71.2 400.85 71.2 403 69.25 405 67.55 406.35 68.2
L 406.35 67.6
M 407 53.85
Q 410.35 48.35 411.6 43 401.45 43.25 392.6 46.85 387.4 49.05 384.6 51.8 384.4 51.95 384.2 52.25 380.2 59.65 380.2 74.6 380.2 76.4 380.85 82.7 389.6 78.95 399.2 65.35 406.05 55.4 407 53.85
M 412.5 43
L 411.6 43
Q 418.4 64.65 443.35 81.7
L 443.35 79.1
Q 443.35 68.45 434.5 56.5 424.6 43 412.5 43 Z"/>
</g>

<g id="Layer0_0_MEMBER_0_MEMBER_0_MEMBER_7_FILL">
<path fill="#FEDEC7" stroke="none" d="
M 116.15 63.75
Q 116.15 63.85 116.3 64 116.85 63.95 123.15 63.6 130.15 62.25 130.15 56.8 130.15 53 129.25 49.85 127.95 46.05 125.9 46.05 120.95 46.05 109.15 47.55 108.75 48.65 108.75 51.1 108.75 58.95 109.5 60.75 110.85 63.85 116.15 64 116.1 63.75 116.15 63.75
M 122.15 51.8
Q 122.7 51.25 123.55 51.25 124.35 51.25 124.9 51.8 125.55 52.55 125.55 53.25 125.55 54 124.9 54.55 124.3 55.2 123.55 55.2 122.75 55.2 122.15 54.55 121.55 54.05 121.55 53.25 121.55 52.5 122.15 51.8
M 147.25 45.05
Q 142.25 45.05 139.75 45.25 136.6 45.7 135.15 46.5 135.55 54.35 136.9 57.85 138.75 62.75 142.65 62.75 147.7 62.75 151.85 60.75 156.4 58.6 156.4 55.7 156.4 49.55 153.85 47.2 151.85 45.05 147.25 45.05
M 143.35 53.95
Q 142.85 53.4 142.85 52.5 142.85 51.65 143.35 51 144.05 50.45 144.85 50.45 145.65 50.45 146.35 51 146.9 51.6 146.9 52.5 146.9 53.4 146.35 53.95 145.7 54.55 144.85 54.55 144.05 54.55 143.35 53.95
M 409.2 82.7
Q 409.2 79.7 408.45 79 407.8 78.6 404.25 78.6 392.35 79.7 389.5 80.2 389.85 82.6 389.85 85.6 390.3 87.45 394.5 87.45 400.6 87.45 403.6 86.85 409.2 85.85 409.2 82.7
M 418.5 79.45
L 418.5 80.45
Q 418.5 85.05 419.5 86 420.45 87.1 425 87.1 430.65 87.1 432.75 86.7 437.35 85.8 437.35 82.85 437.35 79.65 435.75 79.2
L 429.6 79.2
Q 421.75 79.45 418.5 79.45 Z"/>
</g>

<g id="Layer0_0_MEMBER_0_MEMBER_0_MEMBER_8_FILL">
<path fill="#ABECD8" stroke="none" d="
M 495.6 116.85
Q 497.6 114.25 502 112.35 506.35 110.5 510.1 116.25 513.8 122 513.8 124.6 513.8 127.1 512 136 510.15 144.85 508.25 150.9
L 506.75 157.6
Q 506.5 158.4 506.25 158.95
L 505.85 160.2
Q 501.95 174.3 496.25 186.35 489.55 200.4 485.25 200.4 476.55 200.4 469.6 192.4 464.6 186.8 457.35 173.35 455.5 169.9 453.1 164.95 454.7 177.85 457.75 200.9
L 461 200.6
Q 468.95 200.6 474.25 216.15 479.35 231.05 476 241.4 474 242.75 471.35 243.65 467.3 245.15 463.75 245.15
L 463.6 245.15 466.6 267.75 533 267.75 533 5.85 0 5.85 0 267.75 96.05 267.75
Q 96.65 259.55 96.55 258.5 95.5 246.15 94.5 225.95
L 93.9 215.9
Q 92.75 191.5 90.4 174.35 90 174.75 89.55 174.75 88.95 174.75 87.8 174
L 86.55 174
Q 85.6 176.3 84.3 178.75 78.4 190.95 64.15 214.45 62.8 216.05 59.55 218.1 56.2 220.05 49.45 219.25 42.5 218.5 34.4 202.75 31.65 197.5 27.7 187.75 22.75 175.75 21.25 172.6
L 21.1 172.1
Q 15.95 154.85 14.75 150.65 9.1 131.3 9.1 128.15 9.1 120.1 11.85 115.2 15.1 109.7 22 109.7 27.9 109.7 30.35 113.95 31.45 115.5 33.05 122.5 34.2 121.35 35.55 120.2 37.35 118.5 37.65 118.5 39.15 118.5 39.9 120 40.4 121.15 40.4 122.45 40.4 124.5 37.4 128.75
L 36.15 130.6
Q 45.2 155.75 48 163.9 50.3 170.5 54.75 180.1
L 60.75 164.15
Q 66.25 149.85 70.05 140.9 77.9 122.2 86.05 119.25
L 98.55 115
Q 105.1 112.7 108.9 110.7
L 110.55 109.75
Q 113.85 107.65 115.8 105.1 118.65 101.35 118.65 96.45
L 118.65 95.45
Q 117 94.95 116.15 94.5 107.95 90.95 107.5 83.7 107.25 80 105.8 70.35
L 105.55 70.6
Q 104.3 71.6 102.9 71.6 99.9 71.6 97.4 68.5 94.9 65.55 94.9 61.6 94.9 59.85 95.15 59.25 95.65 58.2 97.4 58.2 98.9 58.2 100.4 58.8
L 104.3 60.8 102.65 50.75
Q 101.9 45.6 101.9 44.25 101.9 38.4 102.15 36.55 102.7 32.5 104.65 28.65 104 27.55 104 26.65 104 22.95 113.05 19.8 121.45 17.05 129.35 17.05 145.6 17.05 150.75 20.9 152.1 22.05 152.75 23.4
L 153.3 25.05
Q 154.9 29.65 155.75 32.5 159.1 43.7 160.4 56.05 161.7 54.95 164.05 54.95 166.15 54.95 166.85 56.75 167.35 58 167.35 60.25 167.35 63.65 165.85 65.5 164.2 67.7 161.15 67.75 161.4 86.15 152.85 91.25 148.15 94.2 143.15 95.7 144.55 102.25 147.65 105.95
L 149.35 107.5
Q 150.8 108.6 152.9 109.45 157.7 111.2 165.05 111.2
L 172.85 110.7
Q 185.05 110.7 189.35 118.25 192.3 123.25 195 141.85
L 195.1 142.4
Q 196.3 153.7 197.85 166.5
L 199 176.35
Q 201.3 197 202.1 212.15
L 202.1 212.65
Q 202.1 215.65 203.1 225.95
L 204 234.25
Q 204.85 243.1 205.5 248.15
L 206.15 255.25
Q 206.9 255.45 207.25 255.5 208.75 255.65 211.15 255.65
L 212.1 255.9 211.85 219.15
Q 211.7 205.05 211.25 193.95 210.75 183.1 211.35 169.45 214.35 150.2 217.05 146.4 218.6 144.05 222.1 142.15 223.45 141.3 228.9 138.5
L 230.6 137.65
Q 235.2 135.25 243.85 131.65 245.65 130.65 247.05 129.4 248.4 127.9 249.15 126.2
L 249.35 125.85 248.35 116.6
Q 246.5 116 245.8 115.5 242 113.45 237.15 105.45 236 103.35 234.3 97
L 233.6 97.35
Q 232.85 97.6 232.05 97.6 229.8 97.6 227.1 95.6 223.85 93.15 223.85 89.25 223.85 86.95 224.85 85.75 225.9 84.45 227.85 84.45 229.3 84.45 229.75 84.6 230.4 84.75 231.5 85.45 230.15 79.1 230.15 74.7
L 230.15 73.7
Q 230.15 70.75 230.25 69.85 230.25 69.25 230.5 67.35 230.95 65.9 232.25 59.7 233.2 53.95 240.1 48.25 246.95 42.55 260 43 273.05 43.3 279.5 49.5
L 279.85 49.85
Q 285.85 55.85 285.85 62.35 285.85 66.05 283.75 70.7
L 283 72.45
Q 283.1 74.7 283.1 80.6
L 283.1 82.35 283.5 82.2
Q 285.25 81.45 286.2 81.45 287.7 81.45 288.25 82.45 288.7 83.3 288.7 85.35 288.7 90.35 285.25 93.1 283.7 94.25 282.25 94.6 281.25 100.9 279.6 104.85 278.5 107.65 276.75 109.35
L 273.35 112.6
Q 273.65 118.5 273.95 122
L 274.2 124.7
Q 275.25 126.3 277 127.5 278.8 128.95 281.35 129.9 285.45 131.45 295.1 132.6
L 299.25 133.15
Q 305.6 133.95 308.85 135 310.95 135.7 312.6 136.75 319.9 150.7 324.25 164.4 329.05 180.4 336.6 236.1
L 337.6 244.35
Q 339.1 255.25 340.6 267.75
L 389.25 267.75
Q 389.1 260 389.1 252.5 388.55 254.05 387.7 255.15 385.45 258.15 383.5 258.15 378.7 258.15 375 254.85
L 371.7 251.1 368.85 242
Q 368.1 236.75 367.95 233.6 367.35 227.35 366.75 214.75 366.05 202.75 365.35 197.95
L 363.1 178.25 363.1 175.35
Q 363.4 167.65 363.1 163.15
L 363.1 161.6
Q 362.9 156.15 363.5 150.4 364.05 143.9 366.2 138.95 368.1 134.25 370.95 130.95 372.5 129.9 374.35 128.85 380.05 125.5 386.1 124 383.55 100.3 383.1 97.85 381.55 94.7 380.6 90.7
L 380.5 90.75
Q 379.45 91.5 378.25 91.5 375.65 91.5 374.6 89.95 373.6 88.4 373.6 84.35 373.6 81.45 375 81.45 376.55 81.45 377.75 82.35
L 381.1 84.6 380.85 82.7
Q 380.2 76.4 380.2 74.6 380.2 59.65 384.2 52.25 384.4 51.95 384.6 51.8 387.4 49.05 392.6 46.85 401.45 43.25 411.6 43
L 412.5 43
Q 424.6 43 434.5 56.5 443.35 68.45 443.35 79.1
L 443.35 81.7 444.6 80.6
Q 444.9 80.45 446.35 80.45 447.95 80.45 448.5 81.85 448.7 82.65 448.7 84.6 448.7 88.05 447.2 89.45 446.2 90.5 444.35 90.5
L 442.75 90.5
Q 442.4 93.6 439.45 101.45
L 441.1 124.2 444.25 124.1
Q 446.05 124.1 448 123.95
L 448.85 123.85
Q 451.35 123.6 455.85 125.35 459.3 126.7 471.2 148.85
L 478.75 163.25
Q 482.6 156.6 483.5 154.5 484.65 152.15 485.85 148.4
L 487.45 143.2 487.5 143.1 487.5 142.9
Q 489.35 135.55 490.95 130.1 489.05 129.3 488.35 128.4 487.75 127.45 487.75 125.85 487.75 124.1 489.25 124.1 490.5 124.1 492.35 125.35 494.5 118.2 495.6 116.85
M 206.5 267.75
L 211.3 267.75 211.4 262.05
Q 210.9 262.4 210.1 262.65 208 263.45 207.25 264.15 206.35 264.85 206.35 265.4
L 206.5 267.75 Z"/>
</g>

<g id="Layer0_0_MEMBER_0_MEMBER_0_MEMBER_9_FILL">
<path fill="#CFD72B" stroke="none" d="
M 216.05 253.75
Q 220.25 253.75 225 252.6 227.7 251.9 229.6 250.9
L 229.35 246.85
Q 227.25 248.05 225.35 248.6 222.5 249.15 217.4 249.15
L 214.6 249.15 212.1 248.65 212.1 253.4
Q 214.05 253.75 216.05 253.75
M 337.6 244.35
L 336.6 236.1
Q 332.4 238.4 327.25 239.15 325.25 239.4 321.1 239.4 317.55 239.15 315.1 238.75 312.55 200.25 312.1 186.9 311.75 172.65 311.1 166.15 309.15 146.35 299.25 133.15
L 295.1 132.6
Q 285.45 131.45 281.35 129.9 278.8 128.95 277 127.5 276.4 131.2 275.5 133.65 273.65 139.15 269.5 143.2 267.25 141.75 264.5 136.65 265.15 142.55 268.2 164.9 270.05 179.15 277.25 260.3
L 278.5 260.3
Q 298.15 260.3 315.85 250.75
L 315.6 246.65
Q 323.55 246.65 330.85 245.65 334.45 245.15 337.6 244.35 Z"/>
</g>

<g id="Layer0_0_MEMBER_0_MEMBER_0_MEMBER_10_FILL">
<path fill="#E98F51" stroke="none" d="
M 104.8 64.45
L 104.3 60.8 100.4 58.8
Q 98.9 58.2 97.4 58.2 95.65 58.2 95.15 59.25 94.9 59.85 94.9 61.6 94.9 65.55 97.4 68.5 99.9 71.6 102.9 71.6 104.3 71.6 105.55 70.6
L 105.8 70.35 105.15 66.75
Q 104.1 66.6 101.4 64.6 99.3 62.9 98.05 62.2 101.75 62.4 103.25 63.25 104.05 63.7 104.8 64.45
M 167.35 60.25
Q 167.35 58 166.85 56.75 166.15 54.95 164.05 54.95 161.7 54.95 160.4 56.05
L 160.85 61 161.9 59.75 163.25 58.75 165 58.75
Q 164.2 60.1 162.15 62.35 161.6 63 161.1 63.75
L 161.15 67.75
Q 164.2 67.7 165.85 65.5 167.35 63.65 167.35 60.25 Z"/>
</g>

<g id="Layer0_0_MEMBER_0_MEMBER_0_MEMBER_11_FILL">
<path fill="#D28047" stroke="none" d="
M 101.4 64.6
Q 104.1 66.6 105.15 66.75
L 104.8 64.45
Q 104.05 63.7 103.25 63.25 101.75 62.4 98.05 62.2 99.3 62.9 101.4 64.6
M 165 58.75
L 163.25 58.75 161.9 59.75 160.85 61
Q 160.85 62.2 161.05 63.05
L 161.1 63.75
Q 161.6 63 162.15 62.35 164.2 60.1 165 58.75 Z"/>
</g>

<g id="Layer0_0_MEMBER_0_MEMBER_0_MEMBER_12_FILL">
<path fill="#B1B816" stroke="none" d="
M 262.1 134.25
Q 258.75 133.5 255.1 130.75 252.55 128.9 249.3 125.35
L 249.35 126.35 249.15 126.2
Q 248.4 127.9 247.05 129.4 249.25 134.5 251.05 136.7 252.85 139.05 256.2 141.15
L 260.7 143.75 262.25 137.95
Q 262.95 155.05 265.25 174.7 266.7 187.45 274.1 260.15 275.85 260.3 277.25 260.3 270.05 179.15 268.2 164.9 265.15 142.55 264.5 136.65 267.25 141.75 269.5 143.2 273.65 139.15 275.5 133.65 276.4 131.2 277 127.5 275.25 126.3 274.2 124.7 272.35 126.95 270.75 129.65 269.2 132.15 263.45 134.65
L 263.2 134.75 263.2 134.65
Q 263 134.65 263 134.5
L 262.95 134.4
Q 262.55 134.4 262.1 134.25
M 222.1 142.15
Q 218.6 144.05 217.05 146.4 214.35 150.2 211.35 169.45 210.75 183.1 211.25 193.95 211.7 205.05 211.85 219.15
L 212.1 248.65 214.6 249.15 217.4 249.15
Q 222.5 249.15 225.35 248.6 227.25 248.05 229.35 246.85 227.85 212.15 227.55 209.9 227.2 207.55 227.25 202.65 227.25 197.8 227.1 195.15
L 227.35 182.65
Q 227.05 166.65 227.1 159.65 227.35 147.1 228.9 138.5 223.45 141.3 222.1 142.15
M 327.25 239.15
Q 332.4 238.4 336.6 236.1 329.05 180.4 324.25 164.4 319.9 150.7 312.6 136.75 310.95 135.7 308.85 135 305.6 133.95 299.25 133.15 309.15 146.35 311.1 166.15 311.75 172.65 312.1 186.9 312.55 200.25 315.1 238.75 317.55 239.15 321.1 239.4 325.25 239.4 327.25 239.15 Z"/>
</g>

<g id="Layer0_0_MEMBER_0_MEMBER_0_MEMBER_13_FILL">
<path fill="#C26A40" stroke="none" d="
M 273.95 122
Q 273.65 118.5 273.35 112.6 273 113.1 272.5 113.45 270.7 115.3 266.25 116.6 263.15 117.45 260.35 117.6 258.45 117.75 258.45 117.5 251.95 117.5 248.35 116.6
L 249.3 125.35
Q 252.55 128.9 255.1 130.75 258.75 133.5 262.1 134.25 262.55 134.4 262.95 134.4
L 263 134.5
Q 263 134.65 263.2 134.65
L 263.2 134.75 263.45 134.65
Q 269.2 132.15 270.75 129.65 272.35 126.95 274.2 124.7
L 273.95 122
M 229.75 84.6
Q 229.3 84.45 227.85 84.45 225.9 84.45 224.85 85.75 223.85 86.95 223.85 89.25 223.85 93.15 227.1 95.6 229.8 97.6 232.05 97.6 232.85 97.6 233.6 97.35
L 234.3 97 233.25 93.1
Q 232.05 88.65 231.5 85.45 230.4 84.75 229.75 84.6
M 283.1 82.35
Q 283.05 89 282.25 94.6 283.7 94.25 285.25 93.1 288.7 90.35 288.7 85.35 288.7 83.3 288.25 82.45 287.7 81.45 286.2 81.45 285.25 81.45 283.5 82.2
L 283.1 82.35 Z"/>
</g>

<g id="Layer0_0_MEMBER_0_MEMBER_0_MEMBER_14_FILL">
<path fill="#CFD725" stroke="none" d="
M 230.6 137.65
L 228.9 138.5
Q 227.35 147.1 227.1 159.65 227.05 166.65 227.35 182.65
L 227.1 195.15
Q 227.25 197.8 227.25 202.65 227.2 207.55 227.55 209.9 227.85 212.15 229.35 246.85
L 229.6 251.65
Q 236.8 254.3 252.55 257.25 265.4 259.6 274.1 260.15 266.7 187.45 265.25 174.7 262.95 155.05 262.25 137.95
L 260.7 143.75 256.2 141.15
Q 252.85 139.05 251.05 136.7 249.25 134.5 247.05 129.4 245.65 130.65 243.85 131.65 235.2 135.25 230.6 137.65 Z"/>
</g>

<g id="Layer0_0_MEMBER_0_MEMBER_0_MEMBER_15_FILL">
<path fill="#E07F50" stroke="none" d="
M 278.25 51.85
Q 274.95 55.4 268.2 57
L 252.35 59.25
Q 242.65 60.5 237.6 63.8 232.45 67.2 230.15 73.7
L 230.15 74.7
Q 230.15 79.1 231.5 85.45 232.05 88.65 233.25 93.1
L 234.3 97
Q 236 103.35 237.15 105.45 242 113.45 245.8 115.5 246.5 116 248.35 116.6 251.95 117.5 258.45 117.5 258.45 117.75 260.35 117.6 263.15 117.45 266.25 116.6 270.7 115.3 272.5 113.45 273 113.1 273.35 112.6
L 276.75 109.35
Q 278.5 107.65 279.6 104.85 281.25 100.9 282.25 94.6 283.05 89 283.1 82.35
L 283.1 80.6
Q 283.1 74.7 283 72.45 282.75 69 282.35 67.2 281.95 64.6 278.25 51.85
M 257.75 75.7
Q 258.05 76.7 259.45 79.35 261 82.55 261 84.6 261 85.9 260.6 86.45 260.25 87.1 259 87.1 257.45 87.1 256.75 86.6 255.75 85.85 255.75 83.85 255.45 80.9 257.75 75.7
M 243.85 76.45
Q 243.85 75.45 244.6 74.7 245.3 74.1 246.3 74.1 247.25 74.1 248 74.7 248.65 75.4 248.65 76.45 248.65 77.5 248 78.1 247.25 78.85 246.3 78.85 245.3 78.85 244.6 78.1 243.85 77.5 243.85 76.45
M 253.65 97.1
L 253.35 96.1
Q 253.35 95.45 254.35 95.45 255.45 95.45 256.6 95.85 257.85 96.1 259.2 96.1 260.55 96.1 262.1 95.5 263.6 94.95 264.45 94.95 264.7 94.95 265 95.25 265.25 95.65 265.25 95.95 265.25 96.95 262.1 97.7 259.35 98.2 257.85 98.2 256.35 98.2 254.85 97.6
L 253.65 97.1
M 272.1 77.5
Q 271.65 78.1 270.7 78.1 269.75 78.1 269.2 77.5 268.6 76.9 268.6 76.1 268.6 75.2 269.2 74.6 269.8 74 270.7 74 271.6 74 272.1 74.6 272.75 75.2 272.75 76.1 272.75 76.9 272.1 77.5 Z"/>
</g>

<g id="Layer0_0_MEMBER_0_MEMBER_0_MEMBER_16_FILL">
<path fill="#801460" stroke="none" d="
M 476 241.4
Q 479.35 231.05 474.25 216.15 468.95 200.6 461 200.6
L 457.75 200.9
Q 460.15 219.75 463.6 245.15
L 463.75 245.15
Q 467.3 245.15 471.35 243.65 474 242.75 476 241.4 Z"/>
</g>

<g id="Layer0_0_MEMBER_0_MEMBER_0_MEMBER_17_FILL">
<path fill="#E94897" stroke="none" d="
M 475.75 161.75
L 467.25 151 462.5 153.7
Q 467.75 160.25 471.45 164.5 473.85 162.9 475.75 161.75
M 387.1 173.85
Q 387 173.85 387 173.7 386.35 170.45 385 161.65
L 380.95 161.7 383.5 174.4 387.1 173.85
M 453.6 158.9
Q 458.65 166.35 462.35 170.65 464.65 169.3 466.1 168.25 462.65 164.15 457.1 156.85 455.4 157.75 453.6 158.9
M 368.6 161.65
L 364.75 161.65
Q 365.65 172.1 366.1 175.2
L 370.35 174.95
Q 369.35 168 368.6 161.65
M 376.1 161.7
L 371.85 161.7
Q 372.7 169 374 174.75 374.55 174.75 374.85 174.7
L 379.6 174.65
Q 377.7 168 376.1 161.7 Z"/>
</g>

<g id="Layer0_0_MEMBER_0_MEMBER_0_MEMBER_18_FILL">
<path fill="#D874DE" stroke="none" d="
M 467.25 151
L 475.75 161.75 477.45 160.75 471.2 148.85 467.25 151
M 466.1 168.25
L 471.45 164.5
Q 467.75 160.25 462.5 153.7 462.3 153.75 462.25 153.9 459.65 155.25 457.1 156.85 462.65 164.15 466.1 168.25
M 380.95 161.7
L 376.1 161.7
Q 377.7 168 379.6 174.65
L 380.5 174.65
Q 382 174.65 383.5 174.4
L 380.95 161.7
M 396.25 122.45
L 386.1 124
Q 387.9 126.9 388.5 130.4 394.6 146.25 401.1 153.95 408.3 162.6 417.35 162.6 432 162.6 439 140.5 440.5 135.65 441.6 130.15 442.45 124.35 442.5 124.1
L 441.1 124.2
Q 434.5 124.3 431.7 124.2
L 431.2 124.2
Q 425.1 141.4 415 141.4 409.7 141.4 405.25 137.15 400 132.35 396.25 122.45
M 453.6 158.9
L 452.45 159.65 453.1 164.95
Q 455.5 169.9 457.35 173.35 459.8 172.2 462.35 170.65 458.65 166.35 453.6 158.9
M 371.85 161.7
L 368.6 161.65
Q 369.35 168 370.35 174.95 372.8 174.85 374 174.75 372.7 169 371.85 161.7
M 385.25 161.65
L 385 161.65
Q 386.35 170.45 387 173.7 387 173.85 387.1 173.85
L 387.35 173.7
Q 387.7 166.35 387.7 165.15
L 387.6 161.25 385.25 161.65
M 363.1 163.15
Q 363.4 167.65 363.1 175.35
L 366.1 175.2
Q 365.65 172.1 364.75 161.65
L 363.1 161.6 363.1 163.15 Z"/>
</g>

<g id="Layer0_0_MEMBER_0_MEMBER_0_MEMBER_19_FILL">
<path fill="#289C52" stroke="none" d="
M 448 123.95
Q 450.15 134.35 450.75 145.45 450.9 147.45 452.1 156.65
L 453.6 158.9
Q 455.4 157.75 457.1 156.85 459.65 155.25 462.25 153.9 462.3 153.75 462.5 153.7
L 471.2 148.85
Q 459.3 126.7 455.85 125.35 451.35 123.6 448.85 123.85
L 448 123.95
M 385.45 140.1
Q 384.25 137.15 383 135.2 381.65 133.2 374.35 128.85 372.5 129.9 370.95 130.95 368.1 134.25 366.2 138.95 364.05 143.9 363.5 150.4 362.9 156.15 363.1 161.6
L 385.25 161.65 387.6 161.25
Q 387.4 156.65 387.1 151.9 386.6 143.1 385.45 140.1
M 397.6 122.2
L 396.25 122.45
Q 400 132.35 405.25 137.15 409.7 141.4 415 141.4 425.1 141.4 431.2 124.2 429.1 123.95 427.85 123.45 426.45 122.95 425.45 122.1
L 425.6 126.2
Q 424.15 127.5 422.35 128.4 418.6 130.35 415.1 130.35 409.95 130.35 406.25 127.35 404.25 125.55 402.75 122.95
L 402.75 121 401.95 121.2
Q 399.65 121.85 397.6 122.2 Z"/>
</g>

<g id="Layer0_0_MEMBER_0_MEMBER_0_MEMBER_20_FILL">
<path fill="#46C976" stroke="none" d="
M 386.1 124
Q 380.05 125.5 374.35 128.85 381.65 133.2 383 135.2 384.25 137.15 385.45 140.1 386.6 143.1 387.1 151.9 387.4 156.65 387.6 161.25
L 387.7 165.15
Q 387.7 166.35 387.35 173.7
L 387.25 174.95
Q 386.95 181.7 389.85 235.15
L 394.6 234.15
Q 395.2 234.15 396.1 235.15 396.85 236.05 396.85 236.6 396.85 239.1 393.35 240.65 391.45 241.2 389.25 241.85 389.25 247.8 389.1 252.5 389.1 260 389.25 267.75
L 466.6 267.75 463.6 245.15
Q 460.15 219.75 457.75 200.9 454.7 177.85 453.1 164.95
L 452.45 159.65
Q 452.15 157.25 452.1 156.65 450.9 147.45 450.75 145.45 450.15 134.35 448 123.95 446.05 124.1 444.25 124.1
L 442.5 124.1
Q 442.45 124.35 441.6 130.15 440.5 135.65 439 140.5 432 162.6 417.35 162.6 408.3 162.6 401.1 153.95 394.6 146.25 388.5 130.4 387.25 127.5 386.1 124 Z"/>
</g>

<g id="Layer0_0_MEMBER_0_MEMBER_0_MEMBER_21_FILL">
<path fill="#DB7F52" stroke="none" d="
M 402.1 112.35
Q 401.9 112.2 401.6 112.2
L 402.6 116.85
Q 402.75 117.6 402.75 121
L 402.75 122.95
Q 404.25 125.55 406.25 127.35 409.95 130.35 415.1 130.35 418.6 130.35 422.35 128.4 424.15 127.5 425.6 126.2
L 425.1 111.35
Q 418.55 114.25 413 114.25 409.6 114.25 406.95 113.6 404.45 113.1 402.1 112.35
M 502 112.35
Q 497.6 114.25 495.6 116.85 494.5 118.2 492.35 125.35 490.5 124.1 489.25 124.1 487.75 124.1 487.75 125.85 487.75 127.45 488.35 128.4 489.05 129.3 490.95 130.1 489.35 135.55 487.5 142.9
L 487.5 143.1 487.45 143.2 485.85 148.4
Q 484.65 152.15 483.5 154.5 482.6 156.6 478.75 163.25
L 477.45 160.75 475.75 161.75
Q 473.85 162.9 471.45 164.5
L 466.1 168.25
Q 464.65 169.3 462.35 170.65 459.8 172.2 457.35 173.35 464.6 186.8 469.6 192.4 476.55 200.4 485.25 200.4 489.55 200.4 496.25 186.35 501.95 174.3 505.85 160.2
L 506.25 158.95
Q 506.5 158.4 506.75 157.6
L 508.25 150.9
Q 510.15 144.85 512 136 513.8 127.1 513.8 124.6 513.8 122 510.1 116.25 506.35 110.5 502 112.35 Z"/>
</g>

<g id="Layer0_0_MEMBER_0_MEMBER_0_MEMBER_22_FILL">
<path fill="#E9946B" stroke="none" d="
M 444.6 80.6
L 443.35 81.7
Q 418.4 64.65 411.6 43 410.35 48.35 407 53.85 406.05 55.4 399.2 65.35 389.6 78.95 380.85 82.7
L 381.1 84.6 377.75 82.35
Q 376.55 81.45 375 81.45 373.6 81.45 373.6 84.35 373.6 88.4 374.6 89.95 375.65 91.5 378.25 91.5 379.45 91.5 380.5 90.75
L 380.6 90.7
Q 381.55 94.7 383.1 97.85 384.55 100.4 386.25 102.2 388.4 104.2 392.6 107.7 394.65 109.4 397.35 110.45
L 401.6 112.2
Q 401.9 112.2 402.1 112.35 404.45 113.1 406.95 113.6 409.6 114.25 413 114.25 418.55 114.25 425.1 111.35 427.65 110.15 431.35 107.95 436 104.9 439.45 101.45 442.4 93.6 442.75 90.5
L 444.35 90.5
Q 446.2 90.5 447.2 89.45 448.7 88.05 448.7 84.6 448.7 82.65 448.5 81.85 447.95 80.45 446.35 80.45 444.9 80.45 444.6 80.6
M 406.35 67.6
L 406.35 68.2
Q 405 67.55 403 69.25 400.85 71.2 400 71.2 399.5 71.2 399.25 70.35 400.4 69.4 402.6 68.1 404.55 66.95 405.2 66.95 405.8 66.95 405.85 67.1
L 406.35 67.6
M 421.5 72.6
Q 422.3 72.6 422.75 73.1 423.35 73.7 423.35 74.45 423.35 75.2 422.75 75.7 422.35 76.25 421.5 76.25 420.75 76.25 420.2 75.7 419.7 75.2 419.7 74.45 419.7 73.65 420.2 73.1 420.75 72.6 421.5 72.6
M 416.25 67.2
Q 417.15 66.95 417.75 66.95 419.4 66.95 421.1 68.6 422.5 69.8 422.85 70.75
L 421.7 70.75 418.2 68.85
Q 416.85 68.05 416.25 67.2
M 419.5 86
Q 418.5 85.05 418.5 80.45
L 418.5 79.45
Q 421.75 79.45 429.6 79.2
L 435.75 79.2
Q 437.35 79.65 437.35 82.85 437.35 85.8 432.75 86.7 430.65 87.1 425 87.1 420.45 87.1 419.5 86
M 413.7 77.85
Q 413.7 78.5 415 82.1 416.25 85.7 416.25 86.7 416.25 87.45 415.85 88.1 415.4 88.7 414.5 88.7 413.55 88.7 412.85 88.1 412 87.35 412 86.25 412.6 81.45 413.7 77.85
M 406.5 74.45
Q 406.5 75.3 405.95 75.85 405.35 76.45 404.5 76.45 403.75 76.45 403.2 75.85 402.6 75.35 402.6 74.45 402.6 73.7 403.2 73.1 403.8 72.5 404.5 72.5 405.25 72.5 405.95 73.1 406.5 73.75 406.5 74.45
M 408.45 79
Q 409.2 79.7 409.2 82.7 409.2 85.85 403.6 86.85 400.6 87.45 394.5 87.45 390.3 87.45 389.85 85.6 389.85 82.6 389.5 80.2 392.35 79.7 404.25 78.6 407.8 78.6 408.45 79
M 407.35 91.7
Q 407.9 91.25 408.2 91.25
L 410.7 92.1
Q 413.15 92.95 415.35 92.95 417.5 92.95 418.1 92.45 419.15 91.5 420.5 90.95 420.7 91.15 420.7 91.7 420.7 93.7 417.85 94.5 416.1 95.1 413.1 95.1 410.65 95.1 408.85 93.95 407.55 93.15 407.1 92.35 407.1 92.05 407.35 91.7 Z"/>
</g>

<path id="Layer0_0_MEMBER_1_MEMBER_0_1_STROKES" stroke="#000000" stroke-width="1" stroke-linejoin="round" stroke-linecap="round" fill="none" d="
M 268.25 67.95
Q 271.45 66.7 273.85 69.75
M 242.75 70.6
Q 245.35 68.4 248.05 68.45
M 140.3 39.35
Q 143.85 36.2 147.35 41.3
M 117.65 45.05
Q 120.15 41.7 124.05 41.75"/>
</defs>

<g transform="matrix( 1, 0, 0, 1, 0,-5.85) ">
<use xlink:href="#Layer0_0_MEMBER_0_MEMBER_0_MEMBER_0_FILL"/>
</g>

<g transform="matrix( 1, 0, 0, 1, 0,-5.85) ">
<use xlink:href="#Layer0_0_MEMBER_0_MEMBER_0_MEMBER_1_FILL"/>
</g>

<g transform="matrix( 1, 0, 0, 1, 0,-5.85) ">
<use xlink:href="#Layer0_0_MEMBER_0_MEMBER_0_MEMBER_2_FILL"/>
</g>

<g transform="matrix( 1, 0, 0, 1, 0,-5.85) ">
<use xlink:href="#Layer0_0_MEMBER_0_MEMBER_0_MEMBER_3_FILL"/>
</g>

<g transform="matrix( 1, 0, 0, 1, 0,-5.85) ">
<use xlink:href="#Layer0_0_MEMBER_0_MEMBER_0_MEMBER_4_FILL"/>
</g>

<g transform="matrix( 1, 0, 0, 1, 0,-5.85) ">
<use xlink:href="#Layer0_0_MEMBER_0_MEMBER_0_MEMBER_5_FILL"/>
</g>

<g transform="matrix( 1, 0, 0, 1, 0,-5.85) ">
<use xlink:href="#Layer0_0_MEMBER_0_MEMBER_0_MEMBER_6_FILL"/>
</g>

<g transform="matrix( 1, 0, 0, 1, 0,-5.85) ">
<use xlink:href="#Layer0_0_MEMBER_0_MEMBER_0_MEMBER_7_FILL"/>
</g>

<g transform="matrix( 1, 0, 0, 1, 0,-5.85) ">
<use xlink:href="#Layer0_0_MEMBER_0_MEMBER_0_MEMBER_8_FILL"/>
</g>

<g transform="matrix( 1, 0, 0, 1, 0,-5.85) ">
<use xlink:href="#Layer0_0_MEMBER_0_MEMBER_0_MEMBER_9_FILL"/>
</g>

<g transform="matrix( 1, 0, 0, 1, 0,-5.85) ">
<use xlink:href="#Layer0_0_MEMBER_0_MEMBER_0_MEMBER_10_FILL"/>
</g>

<g transform="matrix( 1, 0, 0, 1, 0,-5.85) ">
<use xlink:href="#Layer0_0_MEMBER_0_MEMBER_0_MEMBER_11_FILL"/>
</g>

<g transform="matrix( 1, 0, 0, 1, 0,-5.85) ">
<use xlink:href="#Layer0_0_MEMBER_0_MEMBER_0_MEMBER_12_FILL"/>
</g>

<g transform="matrix( 1, 0, 0, 1, 0,-5.85) ">
<use xlink:href="#Layer0_0_MEMBER_0_MEMBER_0_MEMBER_13_FILL"/>
</g>

<g transform="matrix( 1, 0, 0, 1, 0,-5.85) ">
<use xlink:href="#Layer0_0_MEMBER_0_MEMBER_0_MEMBER_14_FILL"/>
</g>

<g transform="matrix( 1, 0, 0, 1, 0,-5.85) ">
<use xlink:href="#Layer0_0_MEMBER_0_MEMBER_0_MEMBER_15_FILL"/>
</g>

<g transform="matrix( 1, 0, 0, 1, 0,-5.85) ">
<use xlink:href="#Layer0_0_MEMBER_0_MEMBER_0_MEMBER_16_FILL"/>
</g>

<g transform="matrix( 1, 0, 0, 1, 0,-5.85) ">
<use xlink:href="#Layer0_0_MEMBER_0_MEMBER_0_MEMBER_17_FILL"/>
</g>

<g transform="matrix( 1, 0, 0, 1, 0,-5.85) ">
<use xlink:href="#Layer0_0_MEMBER_0_MEMBER_0_MEMBER_18_FILL"/>
</g>

<g transform="matrix( 1, 0, 0, 1, 0,-5.85) ">
<use xlink:href="#Layer0_0_MEMBER_0_MEMBER_0_MEMBER_19_FILL"/>
</g>

<g transform="matrix( 1, 0, 0, 1, 0,-5.85) ">
<use xlink:href="#Layer0_0_MEMBER_0_MEMBER_0_MEMBER_20_FILL"/>
</g>

<g transform="matrix( 1, 0, 0, 1, 0,-5.85) ">
<use xlink:href="#Layer0_0_MEMBER_0_MEMBER_0_MEMBER_21_FILL"/>
</g>

<g transform="matrix( 1, 0, 0, 1, 0,-5.85) ">
<use xlink:href="#Layer0_0_MEMBER_0_MEMBER_0_MEMBER_22_FILL"/>
</g>

<g transform="matrix( 1, 0, 0, 1, 0,-5.85) ">
<use xlink:href="#Layer0_0_MEMBER_1_MEMBER_0_1_STROKES"/>
</g>
</svg>
